<svg width="158" height="218" viewBox="0 0 158 218" fill="none" xmlns="http://www.w3.org/2000/svg">
<rect x="38.2" y="0.2" width="119.6" height="217.6" fill="#BFBDBD" stroke="black" stroke-width="0.4"/>
<line x1="98.2" x2="98.2" y2="218" stroke="black" stroke-width="0.4"/>
<line x1="158" y1="130.5" x2="38" y2="130.5" stroke="#A09890"/>
<line x1="158" y1="130.5" x2="38" y2="130.5" stroke="#A09890"/>
<line x1="158" y1="56.5" x2="38" y2="56.5" stroke="#A09890"/>
<line x1="158" y1="56.5" x2="38" y2="56.5" stroke="#A09890"/>
<path d="M63.95 21.6545V25.0475H67.395V25.8015H63.95V29.2465H67.785V30.0005H63.04V20.9005H67.785V21.6545H63.95Z" fill="black"/>
<path d="M131.376 23.5655C131.116 22.9675 130.717 22.4995 130.18 22.1615C129.651 21.8148 129.027 21.6415 128.308 21.6415C127.632 21.6415 127.025 21.7975 126.488 22.1095C125.951 22.4215 125.526 22.8678 125.214 23.4485C124.902 24.0205 124.746 24.6878 124.746 25.4505C124.746 26.2132 124.902 26.8848 125.214 27.4655C125.526 28.0462 125.951 28.4925 126.488 28.8045C127.025 29.1165 127.632 29.2725 128.308 29.2725C128.941 29.2725 129.508 29.1382 130.011 28.8695C130.522 28.5922 130.93 28.2022 131.233 27.6995C131.545 27.1882 131.723 26.5945 131.766 25.9185H127.944V25.1775H132.728V25.8405C132.685 26.6378 132.468 27.3615 132.078 28.0115C131.688 28.6528 131.164 29.1598 130.505 29.5325C129.855 29.9052 129.123 30.0915 128.308 30.0915C127.467 30.0915 126.705 29.8965 126.02 29.5065C125.335 29.1078 124.794 28.5575 124.395 27.8555C124.005 27.1448 123.81 26.3432 123.81 25.4505C123.81 24.5578 124.005 23.7605 124.395 23.0585C124.794 22.3478 125.335 21.7975 126.02 21.4075C126.705 21.0088 127.467 20.8095 128.308 20.8095C129.279 20.8095 130.128 21.0522 130.856 21.5375C131.584 22.0228 132.113 22.6988 132.442 23.5655H131.376Z" fill="black"/>
<path d="M65.95 171.913V181H65.04V171.913H65.95Z" fill="black"/>
<path d="M66.954 89.9135V90.6675H62.95V94.0605H66.33V94.8145H62.95V99.0005H62.04V89.9135H66.954Z" fill="black"/>
<path d="M132.787 89.9135V99.0005H131.877V94.7495H126.95V99.0005H126.04V89.9135H126.95V93.9955H131.877V89.9135H132.787Z" fill="black"/>
<path d="M131.425 171.913V178.79C131.425 179.484 131.213 180.043 130.788 180.467C130.363 180.883 129.796 181.091 129.085 181.091C128.348 181.091 127.759 180.87 127.317 180.428C126.884 179.978 126.667 179.371 126.667 178.608H127.59C127.599 179.102 127.72 179.505 127.954 179.817C128.197 180.129 128.574 180.285 129.085 180.285C129.57 180.285 129.93 180.142 130.164 179.856C130.398 179.57 130.515 179.215 130.515 178.79V171.913H131.425Z" fill="black"/>
<path d="M2.67339e-06 94.1549V95.4112L29.8778 95.4112L29.8778 90.484L30.5448 90L38.269 94.9272V95.8951L30.5448 100.822L29.8778 100.338V94.1549L2.67339e-06 94.1549ZM30.7865 99.429L37.0849 95.4112L30.7866 91.3933L30.7866 95.4112L30.7865 99.429Z" fill="#EB5757"/>
</svg>
