<svg width="120" height="256" viewBox="0 0 120 256" fill="none" xmlns="http://www.w3.org/2000/svg">
<rect x="0.2" y="38.2" width="119.6" height="217.6" fill="#BFBDBD" stroke="black" stroke-width="0.4"/>
<line x1="60.2" y1="38" x2="60.2" y2="256" stroke="black" stroke-width="0.4"/>
<line x1="120" y1="168.5" y2="168.5" stroke="#A09890"/>
<line x1="120" y1="168.5" y2="168.5" stroke="#A09890"/>
<line x1="120" y1="94.5" y2="94.5" stroke="#A09890"/>
<line x1="120" y1="94.5" y2="94.5" stroke="#A09890"/>
<path d="M25.95 59.6545V63.0475H29.395V63.8015H25.95V67.2465H29.785V68.0005H25.04V58.9005H29.785V59.6545H25.95Z" fill="black"/>
<path d="M93.376 61.5655C93.116 60.9675 92.7173 60.4995 92.18 60.1615C91.6513 59.8148 91.0273 59.6415 90.308 59.6415C89.632 59.6415 89.0253 59.7975 88.488 60.1095C87.9507 60.4215 87.526 60.8678 87.214 61.4485C86.902 62.0205 86.746 62.6878 86.746 63.4505C86.746 64.2132 86.902 64.8848 87.214 65.4655C87.526 66.0462 87.9507 66.4925 88.488 66.8045C89.0253 67.1165 89.632 67.2725 90.308 67.2725C90.9407 67.2725 91.5083 67.1382 92.011 66.8695C92.5223 66.5922 92.9297 66.2022 93.233 65.6995C93.545 65.1882 93.7227 64.5945 93.766 63.9185H89.944V63.1775H94.728V63.8405C94.6847 64.6378 94.468 65.3615 94.078 66.0115C93.688 66.6528 93.1637 67.1598 92.505 67.5325C91.855 67.9052 91.1227 68.0915 90.308 68.0915C89.4673 68.0915 88.7047 67.8965 88.02 67.5065C87.3353 67.1078 86.7937 66.5575 86.395 65.8555C86.005 65.1448 85.81 64.3432 85.81 63.4505C85.81 62.5578 86.005 61.7605 86.395 61.0585C86.7937 60.3478 87.3353 59.7975 88.02 59.4075C88.7047 59.0088 89.4673 58.8095 90.308 58.8095C91.2787 58.8095 92.128 59.0522 92.856 59.5375C93.584 60.0228 94.1127 60.6988 94.442 61.5655H93.376Z" fill="black"/>
<path d="M27.95 209.913V219H27.04V209.913H27.95Z" fill="black"/>
<path d="M28.954 127.913V128.667H24.95V132.06H28.33V132.814H24.95V137H24.04V127.913H28.954Z" fill="black"/>
<path d="M94.787 127.913V137H93.877V132.749H88.95V137H88.04V127.913H88.95V131.995H93.877V127.913H94.787Z" fill="black"/>
<path d="M93.425 209.913V216.79C93.425 217.484 93.2127 218.043 92.788 218.467C92.3633 218.883 91.7957 219.091 91.085 219.091C90.3483 219.091 89.759 218.87 89.317 218.428C88.8837 217.978 88.667 217.371 88.667 216.608H89.59C89.5987 217.102 89.72 217.505 89.954 217.817C90.1967 218.129 90.5737 218.285 91.085 218.285C91.5703 218.285 91.93 218.142 92.164 217.856C92.398 217.57 92.515 217.215 92.515 216.79V209.913H93.425Z" fill="black"/>
<path d="M61.6674 6.37085e-05H60.4111L60.4111 29.8778H65.3383L65.8222 30.5449L60.8951 38.269H59.9272L55 30.5449L55.484 29.8778H61.6674L61.6674 6.37085e-05ZM56.3933 30.7866L60.4111 37.085L64.429 30.7866L60.4111 30.7866L56.3933 30.7866Z" fill="#EB5757"/>
</svg>
