<svg width="242" height="279" viewBox="0 0 242 279" fill="none" xmlns="http://www.w3.org/2000/svg">
<path d="M120.898 230.821C121.904 230.821 122.766 231.003 123.485 231.367C124.205 231.731 124.755 232.255 125.136 232.94C125.518 233.624 125.708 234.439 125.708 235.384C125.708 236.32 125.518 237.13 125.136 237.815C124.755 238.491 124.205 239.011 123.485 239.375C122.766 239.73 121.904 239.908 120.898 239.908H118.207V230.821H120.898ZM120.898 239.154C122.164 239.154 123.126 238.824 123.784 238.166C124.452 237.498 124.785 236.571 124.785 235.384C124.785 234.188 124.452 233.256 123.784 232.589C123.126 231.913 122.164 231.575 120.898 231.575H119.117V239.154H120.898Z" fill="black"/>
<path d="M115.352 60.0877C115.352 59.195 115.547 58.3977 115.937 57.6957C116.327 56.985 116.86 56.4347 117.536 56.0447C118.212 55.646 118.966 55.4467 119.798 55.4467C120.812 55.4467 121.678 55.6894 122.398 56.1747C123.126 56.6514 123.654 57.3274 123.984 58.2027H122.918C122.658 57.5874 122.259 57.1064 121.722 56.7597C121.193 56.413 120.552 56.2397 119.798 56.2397C119.13 56.2397 118.528 56.3957 117.991 56.7077C117.462 57.0197 117.046 57.4704 116.743 58.0597C116.439 58.6404 116.288 59.3164 116.288 60.0877C116.288 60.859 116.439 61.535 116.743 62.1157C117.046 62.6964 117.462 63.1427 117.991 63.4547C118.528 63.7667 119.13 63.9227 119.798 63.9227C120.552 63.9227 121.193 63.7537 121.722 63.4157C122.259 63.069 122.658 62.5924 122.918 61.9857H123.984C123.654 62.8524 123.126 63.524 122.398 64.0007C121.67 64.4774 120.803 64.7157 119.798 64.7157C118.966 64.7157 118.212 64.5207 117.536 64.1307C116.86 63.732 116.327 63.1817 115.937 62.4797C115.547 61.7777 115.352 60.9804 115.352 60.0877Z" fill="black"/>
<path d="M78.2239 76.8908H74.0899L73.2969 79.0488H72.3349L75.6499 70.0788H76.6769L79.9789 79.0488H79.0169L78.2239 76.8908ZM77.9509 76.1368L76.1569 71.2228L74.3629 76.1368H77.9509ZM80.8023 70.5468V69.7278H83.0123V79.0488H82.0893V70.5468H80.8023Z" fill="black"/>
<path d="M159.403 74.3558C159.914 74.4512 160.348 74.7112 160.703 75.1358C161.058 75.5605 161.236 76.0545 161.236 76.6178C161.236 77.0772 161.119 77.4932 160.885 77.8658C160.66 78.2298 160.326 78.5202 159.884 78.7368C159.442 78.9448 158.913 79.0488 158.298 79.0488H155.152V69.9618H158.207C159.126 69.9618 159.823 70.1742 160.3 70.5988C160.785 71.0235 161.028 71.5738 161.028 72.2498C161.028 72.8132 160.876 73.2725 160.573 73.6278C160.27 73.9745 159.88 74.2172 159.403 74.3558ZM156.062 73.9788H158.181C158.796 73.9788 159.269 73.8358 159.598 73.5498C159.936 73.2552 160.105 72.8522 160.105 72.3408C160.105 71.8382 159.936 71.4438 159.598 71.1578C159.269 70.8718 158.783 70.7288 158.142 70.7288H156.062V73.9788ZM158.233 78.2818C158.892 78.2818 159.403 78.1258 159.767 77.8138C160.14 77.5018 160.326 77.0728 160.326 76.5268C160.326 75.9808 160.131 75.5475 159.741 75.2268C159.36 74.8975 158.844 74.7328 158.194 74.7328H156.062V78.2818H158.233ZM162.272 70.5468V69.7278H164.482V79.0488H163.559V70.5468H162.272Z" fill="black"/>
<path d="M76.5115 134.535H72.3775L71.5845 136.693H70.6225L73.9375 127.723H74.9645L78.2665 136.693H77.3045L76.5115 134.535ZM76.2385 133.781L74.4445 128.867L72.6505 133.781H76.2385ZM79.35 135.978C80.9447 134.782 82.1753 133.712 83.042 132.767C83.9173 131.814 84.355 130.882 84.355 129.972C84.355 129.374 84.2033 128.897 83.9 128.542C83.6053 128.178 83.12 127.996 82.444 127.996C81.7853 127.996 81.274 128.204 80.91 128.62C80.5547 129.027 80.3553 129.573 80.312 130.258H79.428C79.48 129.296 79.7747 128.551 80.312 128.022C80.858 127.485 81.5687 127.216 82.444 127.216C83.2847 127.216 83.965 127.454 84.485 127.931C85.005 128.399 85.265 129.066 85.265 129.933C85.265 130.982 84.8273 132 83.952 132.988C83.0853 133.967 82.015 134.925 80.741 135.861H85.551V136.628H79.35V135.978Z" fill="black"/>
<path d="M155.978 132C156.489 132.095 156.923 132.355 157.278 132.78C157.633 133.205 157.811 133.699 157.811 134.262C157.811 134.721 157.694 135.137 157.46 135.51C157.235 135.874 156.901 136.164 156.459 136.381C156.017 136.589 155.488 136.693 154.873 136.693H151.727V127.606H154.782C155.701 127.606 156.398 127.818 156.875 128.243C157.36 128.668 157.603 129.218 157.603 129.894C157.603 130.457 157.451 130.917 157.148 131.272C156.845 131.619 156.455 131.861 155.978 132ZM152.637 131.623H154.756C155.371 131.623 155.844 131.48 156.173 131.194C156.511 130.899 156.68 130.496 156.68 129.985C156.68 129.482 156.511 129.088 156.173 128.802C155.844 128.516 155.358 128.373 154.717 128.373H152.637V131.623ZM154.808 135.926C155.467 135.926 155.978 135.77 156.342 135.458C156.715 135.146 156.901 134.717 156.901 134.171C156.901 133.625 156.706 133.192 156.316 132.871C155.935 132.542 155.419 132.377 154.769 132.377H152.637V135.926H154.808ZM159.107 135.978C160.702 134.782 161.932 133.712 162.799 132.767C163.674 131.814 164.112 130.882 164.112 129.972C164.112 129.374 163.96 128.897 163.657 128.542C163.362 128.178 162.877 127.996 162.201 127.996C161.542 127.996 161.031 128.204 160.667 128.62C160.312 129.027 160.112 129.573 160.069 130.258H159.185C159.237 129.296 159.532 128.551 160.069 128.022C160.615 127.485 161.326 127.216 162.201 127.216C163.042 127.216 163.722 127.454 164.242 127.931C164.762 128.399 165.022 129.066 165.022 129.933C165.022 130.982 164.584 132 163.709 132.988C162.842 133.967 161.772 134.925 160.498 135.861H165.308V136.628H159.107V135.978Z" fill="black"/>
<path d="M76.5115 208.392H72.3775L71.5845 210.55H70.6225L73.9375 201.58H74.9645L78.2665 210.55H77.3045L76.5115 208.392ZM76.2385 207.638L74.4445 202.724L72.6505 207.638H76.2385ZM79.493 203.608C79.5537 202.819 79.857 202.199 80.403 201.749C80.9577 201.289 81.6727 201.06 82.548 201.06C83.1287 201.06 83.627 201.164 84.043 201.372C84.459 201.58 84.771 201.866 84.979 202.23C85.1957 202.585 85.304 202.988 85.304 203.439C85.304 203.985 85.1437 204.457 84.823 204.856C84.5023 205.254 84.0473 205.501 83.458 205.597V205.662C84.0733 205.783 84.563 206.052 84.927 206.468C85.291 206.875 85.473 207.412 85.473 208.08C85.473 208.825 85.2217 209.436 84.719 209.913C84.225 210.381 83.5057 210.615 82.561 210.615C81.6597 210.615 80.9187 210.381 80.338 209.913C79.7573 209.436 79.4237 208.764 79.337 207.898H80.221C80.299 208.478 80.5417 208.951 80.949 209.315C81.3563 209.67 81.8937 209.848 82.561 209.848C83.2197 209.848 83.7223 209.674 84.069 209.328C84.4243 208.981 84.602 208.539 84.602 208.002C84.602 206.684 83.653 206.026 81.755 206.026H81.469V205.259H81.768C83.536 205.259 84.42 204.682 84.42 203.53C84.42 203.027 84.2553 202.624 83.926 202.321C83.5967 202.009 83.1287 201.853 82.522 201.853C81.9327 201.853 81.443 202.009 81.053 202.321C80.6717 202.624 80.4463 203.053 80.377 203.608H79.493Z" fill="black"/>
<path d="M155.978 205.857C156.489 205.952 156.923 206.212 157.278 206.637C157.633 207.061 157.811 207.555 157.811 208.119C157.811 208.578 157.694 208.994 157.46 209.367C157.235 209.731 156.901 210.021 156.459 210.238C156.017 210.446 155.488 210.55 154.873 210.55H151.727V201.463H154.782C155.701 201.463 156.398 201.675 156.875 202.1C157.36 202.524 157.603 203.075 157.603 203.751C157.603 204.314 157.451 204.773 157.148 205.129C156.845 205.475 156.455 205.718 155.978 205.857ZM152.637 205.48H154.756C155.371 205.48 155.844 205.337 156.173 205.051C156.511 204.756 156.68 204.353 156.68 203.842C156.68 203.339 156.511 202.945 156.173 202.659C155.844 202.373 155.358 202.23 154.717 202.23H152.637V205.48ZM154.808 209.783C155.467 209.783 155.978 209.627 156.342 209.315C156.715 209.003 156.901 208.574 156.901 208.028C156.901 207.482 156.706 207.048 156.316 206.728C155.935 206.398 155.419 206.234 154.769 206.234H152.637V209.783H154.808ZM159.25 203.608C159.311 202.819 159.614 202.199 160.16 201.749C160.715 201.289 161.43 201.06 162.305 201.06C162.886 201.06 163.384 201.164 163.8 201.372C164.216 201.58 164.528 201.866 164.736 202.23C164.953 202.585 165.061 202.988 165.061 203.439C165.061 203.985 164.901 204.457 164.58 204.856C164.259 205.254 163.804 205.501 163.215 205.597V205.662C163.83 205.783 164.32 206.052 164.684 206.468C165.048 206.875 165.23 207.412 165.23 208.08C165.23 208.825 164.979 209.436 164.476 209.913C163.982 210.381 163.263 210.615 162.318 210.615C161.417 210.615 160.676 210.381 160.095 209.913C159.514 209.436 159.181 208.764 159.094 207.898H159.978C160.056 208.478 160.299 208.951 160.706 209.315C161.113 209.67 161.651 209.848 162.318 209.848C162.977 209.848 163.479 209.674 163.826 209.328C164.181 208.981 164.359 208.539 164.359 208.002C164.359 206.684 163.41 206.026 161.512 206.026H161.226V205.259H161.525C163.293 205.259 164.177 204.682 164.177 203.53C164.177 203.027 164.012 202.624 163.683 202.321C163.354 202.009 162.886 201.853 162.279 201.853C161.69 201.853 161.2 202.009 160.81 202.321C160.429 202.624 160.203 203.053 160.134 203.608H159.25Z" fill="black"/>
<rect x="173.448" y="165.426" width="5.84942" height="89.0691" fill="#C4C4C4" stroke="black"/>
<rect x="173.448" y="98.7744" width="5.84942" height="67.4525" fill="#C4C4C4" stroke="black"/>
<rect x="173.448" y="44.7324" width="5.84942" height="56.6442" fill="#C4C4C4" stroke="black"/>
<rect x="60.4324" y="165.426" width="5.84942" height="87.2677" fill="#C4C4C4" stroke="black"/>
<rect x="60.4324" y="100.576" width="5.84942" height="65.6511" fill="#C4C4C4" stroke="black"/>
<rect x="60.4324" y="44.7324" width="5.84942" height="56.6442" fill="#C4C4C4" stroke="black"/>
<rect x="60.4324" y="250.09" width="118.865" height="6.20553" fill="#C4C4C4" stroke="black"/>
<rect x="60.4324" y="41.1304" width="118.865" height="6.20553" fill="#C4C4C4" stroke="black"/>
<path d="M64.5497 1.00024H65.5892V32.3993H69.7471L70.2065 33.1003L65.5289 41.2178H64.61L59.9324 33.1003L60.3918 32.3993H64.5497V1.00024ZM61.2551 33.3543L65.0695 39.9734L68.8838 33.3544H65.0695L61.2551 33.3543Z" fill="#B2B2B2"/>
<path d="M91.9474 1.00024H92.9869V32.3993H97.1447L97.6042 33.1003L92.9266 41.2178H92.0077L87.3301 33.1003L87.7895 32.3993H91.9474V1.00024ZM88.6528 33.3543L92.4671 39.9734L96.2815 33.3544H92.4671L88.6528 33.3543Z" fill="#B2B2B2"/>
<path d="M150.167 1.00024H151.207V32.3993H155.365L155.824 33.1003L151.147 41.2178H150.228L145.55 33.1003L146.01 32.3993H150.167V1.00024ZM146.873 33.3543L150.687 39.9734L154.502 33.3544H150.687L146.873 33.3543Z" fill="#B2B2B2"/>
<path d="M175.853 1.00024H176.892V32.3993H181.05L181.51 33.1003L176.832 41.2178H175.913L171.235 33.1003L171.695 32.3993H175.853V1.00024ZM172.558 33.3543L176.372 39.9734L180.187 33.3544H176.372L172.558 33.3543Z" fill="#B2B2B2"/>
<path d="M121.057 1.00024H122.097V32.3993H126.255L126.714 33.1003L122.037 41.2178H121.118L116.44 33.1003L116.9 32.3993H121.057V1.00024ZM117.763 33.3543L121.577 39.9734L125.392 33.3544H121.577L117.763 33.3543Z" fill="#EB5757"/>
<line x1="65.0695" y1="0.750977" x2="176.372" y2="0.750977" stroke="#B2B2B2" stroke-width="0.5"/>
<path d="M181.51 253.741V254.996H194.233V250.075L194.9 249.592L202.616 254.512V255.479L194.9 260.4L194.233 259.917V253.741H181.51ZM195.141 259.008L201.433 254.996L195.141 250.983V254.996L195.141 259.008Z" fill="#B2B2B2"/>
<path d="M122.77 256.796H121.577V270.182H126.255L126.714 270.883L122.037 279H121.118L116.44 270.883L116.9 270.182H122.77V256.796ZM117.763 271.137L121.577 277.756L125.392 271.137H121.577L117.763 271.137Z" fill="#B2B2B2"/>
<path d="M64.5497 256.796H63.3571V270.182H68.0347L68.4942 270.883L63.8165 279H62.8977L58.22 270.883L58.6795 270.182H64.5497V256.796ZM59.5427 271.137L63.3571 277.756L67.1715 271.137H63.3571L59.5427 271.137Z" fill="#B2B2B2"/>
<path d="M180.99 256.796H179.797V270.182H184.475L184.934 270.883L180.257 279H179.338L174.66 270.883L175.12 270.182H180.99V256.796ZM175.983 271.137L179.797 277.756L183.612 271.137H179.797L175.983 271.137Z" fill="#B2B2B2"/>
<line x1="202.308" y1="166.728" x2="202.308" y2="256.797" stroke="#B2B2B2" stroke-width="0.5"/>
<line x1="63.3571" y1="278.164" x2="179.797" y2="278.164" stroke="#B2B2B2" stroke-width="0.5"/>
<path d="M181.51 165.474V166.728H211.357V161.807L212.023 161.324L219.739 166.245V167.212L212.023 172.132L211.357 171.649V165.474H181.51ZM212.265 170.741L218.557 166.728L212.265 162.715V166.728L212.265 170.741Z" fill="#B2B2B2"/>
<line x1="219.431" y1="101.878" x2="219.431" y2="166.728" stroke="#B2B2B2" stroke-width="0.5"/>
<path d="M181.51 41.1772V42.4318H233.617V37.511L234.284 37.0276L242 41.9485V42.9151L234.284 47.8359L233.617 47.3526V41.1772H181.51ZM234.525 46.4445L240.817 42.4318L234.525 38.4191V42.4318L234.525 46.4445Z" fill="#B2B2B2"/>
<path d="M181.51 100.623V101.878H233.617V96.9573L234.284 96.4739L242 101.395V102.361L234.284 107.282L233.617 106.799V100.623H181.51ZM234.525 105.891L240.817 101.878L234.525 97.8654V101.878L234.525 105.891Z" fill="#B2B2B2"/>
<line x1="241.692" y1="42.4326" x2="241.692" y2="101.878" stroke="#B2B2B2" stroke-width="0.5"/>
<path d="M60.4975 41.1772V42.4318H8.38358V37.511L7.71717 37.0276L-1.52588e-05 41.9485L-1.52588e-05 42.9151L7.71717 47.8359L8.38358 47.3526V41.1772H60.4975ZM7.47569 46.4445L1.18297 42.4318L7.47563 38.4191L7.47563 42.4318L7.47569 46.4445Z" fill="#B2B2B2"/>
<path d="M60.4975 100.623V101.878H8.38358V96.9573L7.71717 96.4739L-1.52588e-05 101.395L-1.52588e-05 102.361L7.71717 107.282L8.38358 106.799V100.623H60.4975ZM7.47569 105.891L1.18297 101.878L7.47563 97.8654L7.47563 101.878L7.47569 105.891Z" fill="#B2B2B2"/>
<path d="M60.4975 165.473V166.727H30.6468V161.806L29.9804 161.323L22.2632 166.244V167.211L29.9804 172.131L30.6468 171.648V165.473H60.4975ZM29.7389 170.74L23.4462 166.727L29.7388 162.715V166.727L29.7389 170.74Z" fill="#B2B2B2"/>
<path d="M60.4974 253.74V254.995H47.7723V250.074L47.1058 249.591L39.3887 254.511V255.478L47.1058 260.399L47.7723 259.916V253.74H60.4974ZM46.8644 259.007L40.5716 254.995L46.8643 250.982V254.995L46.8644 259.007Z" fill="#B2B2B2"/>
<line y1="-0.25" x2="90.0691" y2="-0.25" transform="matrix(1.69982e-08 1 1 -1.88073e-08 39.9468 166.728)" stroke="#B2B2B2" stroke-width="0.5"/>
<line y1="-0.25" x2="64.8498" y2="-0.25" transform="matrix(2.50251e-08 1 1 -2.76885e-08 22.8213 101.877)" stroke="#B2B2B2" stroke-width="0.5"/>
<line y1="-0.25" x2="59.4456" y2="-0.25" transform="matrix(2.50251e-08 1 1 -2.76885e-08 0.558182 42.4326)" stroke="#B2B2B2" stroke-width="0.5"/>
</svg>
