<svg width="180" height="337" viewBox="0 0 180 337" fill="none" xmlns="http://www.w3.org/2000/svg">
<path d="M63.3479 78.91C63.3479 78.0173 63.5429 77.22 63.9329 76.518C64.3229 75.8073 64.8559 75.257 65.5319 74.867C66.2079 74.4683 66.9619 74.269 67.7939 74.269C68.8079 74.269 69.6746 74.5116 70.3939 74.997C71.1219 75.4736 71.6506 76.1496 71.9799 77.025H70.9139C70.6539 76.4096 70.2552 75.9286 69.7179 75.582C69.1892 75.2353 68.5479 75.062 67.7939 75.062C67.1266 75.062 66.5242 75.218 65.9869 75.53C65.4582 75.842 65.0422 76.2926 64.7389 76.882C64.4356 77.4626 64.2839 78.1386 64.2839 78.91C64.2839 79.6813 64.4356 80.3573 64.7389 80.938C65.0422 81.5186 65.4582 81.965 65.9869 82.277C66.5242 82.589 67.1266 82.745 67.7939 82.745C68.5479 82.745 69.1892 82.576 69.7179 82.238C70.2552 81.8913 70.6539 81.4146 70.9139 80.808H71.9799C71.6506 81.6746 71.1219 82.3463 70.3939 82.823C69.6659 83.2996 68.7992 83.538 67.7939 83.538C66.9619 83.538 66.2079 83.343 65.5319 82.953C64.8559 82.5543 64.3229 82.004 63.9329 81.302C63.5429 80.6 63.3479 79.8026 63.3479 78.91ZM73.1562 74.958V74.139H75.3662V83.46H74.4432V74.958H73.1562Z" fill="black"/>
<path d="M122.534 78.91C122.534 78.0173 122.729 77.22 123.119 76.518C123.509 75.8073 124.042 75.257 124.718 74.867C125.394 74.4683 126.148 74.269 126.98 74.269C127.994 74.269 128.861 74.5116 129.58 74.997C130.308 75.4736 130.837 76.1496 131.166 77.025H130.1C129.84 76.4096 129.441 75.9286 128.904 75.582C128.375 75.2353 127.734 75.062 126.98 75.062C126.313 75.062 125.71 75.218 125.173 75.53C124.644 75.842 124.228 76.2926 123.925 76.882C123.622 77.4626 123.47 78.1386 123.47 78.91C123.47 79.6813 123.622 80.3573 123.925 80.938C124.228 81.5186 124.644 81.965 125.173 82.277C125.71 82.589 126.313 82.745 126.98 82.745C127.734 82.745 128.375 82.576 128.904 82.238C129.441 81.8913 129.84 81.4146 130.1 80.808H131.166C130.837 81.6746 130.308 82.3463 129.58 82.823C128.852 83.2996 127.985 83.538 126.98 83.538C126.148 83.538 125.394 83.343 124.718 82.953C124.042 82.5543 123.509 82.004 123.119 81.302C122.729 80.6 122.534 79.8026 122.534 78.91ZM132.602 82.745C134.197 81.549 135.428 80.4786 136.294 79.534C137.17 78.5806 137.607 77.649 137.607 76.739C137.607 76.141 137.456 75.6643 137.152 75.309C136.858 74.945 136.372 74.763 135.696 74.763C135.038 74.763 134.526 74.971 134.162 75.387C133.807 75.7943 133.608 76.3403 133.564 77.025H132.68C132.732 76.063 133.027 75.3176 133.564 74.789C134.11 74.2516 134.821 73.983 135.696 73.983C136.537 73.983 137.217 74.2213 137.737 74.698C138.257 75.166 138.517 75.8333 138.517 76.7C138.517 77.7486 138.08 78.767 137.204 79.755C136.338 80.7343 135.267 81.692 133.993 82.628H138.803V83.395H132.602V82.745Z" fill="black"/>
<path d="M66.4549 247.598C67.4602 247.598 68.3226 247.78 69.0419 248.144C69.7612 248.508 70.3116 249.032 70.6929 249.717C71.0742 250.401 71.2649 251.216 71.2649 252.161C71.2649 253.097 71.0742 253.907 70.6929 254.592C70.3116 255.268 69.7612 255.788 69.0419 256.152C68.3226 256.507 67.4602 256.685 66.4549 256.685H63.7639V247.598H66.4549ZM66.4549 255.931C67.7202 255.931 68.6822 255.601 69.3409 254.943C70.0082 254.275 70.3419 253.348 70.3419 252.161C70.3419 250.965 70.0082 250.033 69.3409 249.366C68.6822 248.69 67.7202 248.352 66.4549 248.352H64.6739V255.931H66.4549ZM72.3056 248.183V247.364H74.5156V256.685H73.5926V248.183H72.3056Z" fill="black"/>
<path d="M69.0289 166.359H64.8949L64.1019 168.517H63.1399L66.4549 159.547H67.4819L70.7839 168.517H69.8219L69.0289 166.359ZM68.7559 165.605L66.9619 160.691L65.1679 165.605H68.7559Z" fill="black"/>
<path d="M134.873 162.786C135.385 162.882 135.818 163.142 136.173 163.566C136.529 163.991 136.706 164.485 136.706 165.048C136.706 165.508 136.589 165.924 136.355 166.296C136.13 166.66 135.796 166.951 135.354 167.167C134.912 167.375 134.384 167.479 133.768 167.479H130.622V158.392H133.677C134.596 158.392 135.294 158.605 135.77 159.029C136.256 159.454 136.498 160.004 136.498 160.68C136.498 161.244 136.347 161.703 136.043 162.058C135.74 162.405 135.35 162.648 134.873 162.786ZM131.532 162.409H133.651C134.267 162.409 134.739 162.266 135.068 161.98C135.406 161.686 135.575 161.283 135.575 160.771C135.575 160.269 135.406 159.874 135.068 159.588C134.739 159.302 134.254 159.159 133.612 159.159H131.532V162.409ZM133.703 166.712C134.362 166.712 134.873 166.556 135.237 166.244C135.61 165.932 135.796 165.503 135.796 164.957C135.796 164.411 135.601 163.978 135.211 163.657C134.83 163.328 134.314 163.163 133.664 163.163H131.532V166.712H133.703Z" fill="black"/>
<path d="M125.641 247.598C126.646 247.598 127.509 247.78 128.228 248.144C128.947 248.508 129.498 249.032 129.879 249.717C130.26 250.401 130.451 251.216 130.451 252.161C130.451 253.097 130.26 253.907 129.879 254.592C129.498 255.268 128.947 255.788 128.228 256.152C127.509 256.507 126.646 256.685 125.641 256.685H122.95V247.598H125.641ZM125.641 255.931C126.906 255.931 127.868 255.601 128.527 254.943C129.194 254.275 129.528 253.348 129.528 252.161C129.528 250.965 129.194 250.033 128.527 249.366C127.868 248.69 126.906 248.352 125.641 248.352H123.86V255.931H125.641ZM131.752 255.97C133.346 254.774 134.577 253.703 135.444 252.759C136.319 251.805 136.757 250.874 136.757 249.964C136.757 249.366 136.605 248.889 136.302 248.534C136.007 248.17 135.522 247.988 134.846 247.988C134.187 247.988 133.676 248.196 133.312 248.612C132.956 249.019 132.757 249.565 132.714 250.25H131.83C131.882 249.288 132.176 248.542 132.714 248.014C133.26 247.476 133.97 247.208 134.846 247.208C135.686 247.208 136.367 247.446 136.887 247.923C137.407 248.391 137.667 249.058 137.667 249.925C137.667 250.973 137.229 251.992 136.354 252.98C135.487 253.959 134.417 254.917 133.143 255.853H137.953V256.62H131.752V255.97Z" fill="black"/>
<path d="M157.717 114.181V115.437H170.453V110.51L171.12 110.026L178.845 114.953V115.921L171.12 120.848L170.453 120.364V114.181H157.717ZM171.362 119.455L177.661 115.437L171.362 111.419V115.437L171.362 119.455Z" fill="#B2B2B2"/>
<path d="M157.717 220.6V221.856H170.453V216.929L171.12 216.445L178.845 221.372V222.34L171.12 227.267L170.453 226.783V220.6H157.717ZM171.362 225.874L177.661 221.856L171.362 217.838V221.856L171.362 225.874Z" fill="#B2B2B2"/>
<path d="M157.717 166.488V167.745H170.453V162.817L171.12 162.334L178.845 167.261V168.229L171.12 173.156L170.453 172.672V166.488H157.717ZM171.362 171.763L177.661 167.745L171.362 163.727V167.745L171.362 171.763Z" fill="#B2B2B2"/>
<path d="M157.717 272.907V274.163H170.453V269.236L171.12 268.752L178.845 273.679V274.647L171.12 279.574L170.453 279.09V272.907H157.717ZM171.362 278.181L177.661 274.163L171.362 270.145V274.163L171.362 278.181Z" fill="#B2B2B2"/>
<path d="M157.717 60.0695V61.3257H170.453V56.3985L171.12 55.9146L178.845 60.8418V61.8097L171.12 66.7368L170.453 66.2529V60.0695H157.717ZM171.362 65.3436L177.661 61.3257L171.362 57.3078V61.3257L171.362 65.3436Z" fill="#B2B2B2"/>
<line x1="179.75" y1="274.163" x2="179.75" y2="61.326" stroke="#B2B2B2" stroke-width="0.5"/>
<path d="M0.0189922 61.8737V63.1299H29.8968V58.2027L30.5638 57.7188L38.288 62.646V63.6139L30.5638 68.541L29.8968 68.0571V61.8737H0.0189922ZM30.8055 67.1478L37.1039 63.1299L30.8055 59.112V63.1299L30.8055 67.1478Z" fill="#B2B2B2"/>
<path d="M0.0189922 271.103V272.359H29.8968V267.432L30.5638 266.948L38.288 271.875V272.843L30.5638 277.77L29.8968 277.286V271.103H0.0189922ZM30.8055 276.377L37.1039 272.359L30.8055 268.341V272.359L30.8055 276.377Z" fill="#B2B2B2"/>
<path d="M0.0189922 226.011V227.267H29.8968V222.34L30.5638 221.856L38.288 226.783V227.751L30.5638 232.678L29.8968 232.194V226.011H0.0189922ZM30.8055 231.285L37.1039 227.267L30.8055 223.249V227.267L30.8055 231.285Z" fill="#B2B2B2"/>
<path d="M0.0189922 166.488V167.745H29.8968V162.817L30.5638 162.334L38.288 167.261V168.229L30.5638 173.156L29.8968 172.672V166.488H0.0189922ZM30.8055 171.763L37.1039 167.745L30.8055 163.727V167.745L30.8055 171.763Z" fill="#EB5757"/>
<path d="M0.0189922 115.984V117.24H29.8968V112.313L30.5638 111.829L38.288 116.756V117.724L30.5638 122.651L29.8968 122.167V115.984H0.0189922ZM30.8055 121.258L37.1039 117.24L30.8055 113.222V117.24L30.8055 121.258Z" fill="#B2B2B2"/>
<line x1="0.268951" y1="63.1294" x2="0.268951" y2="272.359" stroke="#B2B2B2" stroke-width="0.5"/>
<path d="M156.523 60.1102H157.717V28.6706H153.034L152.574 27.9688L157.257 19.8408H158.176L162.859 27.9688L162.399 28.6706H156.523V60.1102ZM161.535 27.7144L157.717 21.0868L153.898 27.7144H157.717L161.535 27.7144Z" fill="#B2B2B2"/>
<line x1="99.437" y1="19.5908" x2="157.717" y2="19.5908" stroke="#B2B2B2" stroke-width="0.5"/>
<path d="M41.6777 63.7175H42.8715L42.8715 8.82983L38.1891 8.82983L37.7292 8.12795L42.4116 0L43.3314 0L48.0138 8.12795L47.5539 8.82983H41.6777L41.6777 63.7175ZM46.6898 7.87361L42.8715 1.24595L39.0533 7.87354H42.8715L46.6898 7.87361Z" fill="#B2B2B2"/>
<path d="M98.2431 63.7175H99.437V8.82983L94.7546 8.82983L94.2946 8.12795L98.9771 0L99.8969 0L104.579 8.12795L104.119 8.82983H98.2431V63.7175ZM103.255 7.87361L99.437 1.24595L95.6187 7.87354H99.437L103.255 7.87361Z" fill="#B2B2B2"/>
<line x1="42.8715" y1="0.337891" x2="99.437" y2="0.337892" stroke="#B2B2B2" stroke-width="0.5"/>
<path d="M156.523 275.966H157.717V307.406H153.034L152.574 308.108L157.257 316.236H158.177L162.859 308.108L162.399 307.406H156.523V275.966ZM161.535 308.362L157.717 314.99L153.898 308.362H157.717L161.535 308.362Z" fill="#B2B2B2"/>
<line y1="-0.25" x2="58.2796" y2="-0.25" transform="matrix(1 0 0 -1 99.437 316.236)" stroke="#B2B2B2" stroke-width="0.5"/>
<path d="M41.6777 272.36H42.8716V327.247H38.1892L37.7292 327.949L42.4117 336.077H43.3315L48.0139 327.949L47.554 327.247H41.6777V272.36ZM46.6898 328.204L42.8716 334.831L39.0533 328.204H42.8716L46.6898 328.204Z" fill="#B2B2B2"/>
<path d="M98.2432 272.36H99.437V327.247H94.7546L94.2947 327.949L98.9771 336.077H99.897L104.579 327.949L104.119 327.247H98.2432V272.36ZM103.255 328.204L99.437 334.831L95.6188 328.204H99.437L103.255 328.204Z" fill="#B2B2B2"/>
<line y1="-0.25" x2="56.5655" y2="-0.25" transform="matrix(1 -2.76991e-08 -2.50155e-08 -1 42.8716 335.489)" stroke="#B2B2B2" stroke-width="0.5"/>
<rect x="38.2293" y="60.0215" width="5.85642" height="215.445" fill="#C4C4C4" stroke="black"/>
<rect x="151.36" y="60.0215" width="5.85642" height="215.445" fill="#C4C4C4" stroke="black"/>
<rect x="38.2293" y="269.251" width="62.4219" height="6.21482" fill="#C4C4C4" stroke="black"/>
<rect x="98.2229" y="269.251" width="58.9937" height="6.21482" fill="#C4C4C4" stroke="black"/>
<rect x="38.2293" y="60.0215" width="62.4219" height="6.21482" fill="#C4C4C4" stroke="black"/>
<rect x="98.2229" y="60.0215" width="58.9937" height="6.21482" fill="#C4C4C4" stroke="black"/>
</svg>
