<svg width="270" height="185" viewBox="0 0 270 185" fill="none" xmlns="http://www.w3.org/2000/svg">
<rect x="45.1659" y="65.5591" width="5.76756" height="118.941" fill="#C4C4C4" stroke="black"/>
<rect x="218.416" y="65.5591" width="5.76756" height="118.941" fill="#C4C4C4" stroke="black"/>
<rect x="45.1659" y="180.048" width="179.017" height="4.45185" fill="#C4C4C4" stroke="black"/>
<rect x="0.680953" y="0.182457" width="110.345" height="4.44243" transform="matrix(0.864512 -0.502611 0.497393 0.867525 40.3433 68.2336)" fill="#C4C4C4" stroke="black"/>
<rect x="0.18356" y="0.685068" width="107.471" height="4.44243" transform="matrix(0.864512 0.502611 -0.497393 0.867525 137.07 11.9023)" fill="#C4C4C4" stroke="black"/>
<path class="img-cpi_roof_left" d="M90.8152 46.8567C90.5492 46.7855 90.2755 46.9446 90.2039 47.2121L89.0357 51.5719C88.964 51.8394 89.1215 52.114 89.3874 52.1853C89.6533 52.2566 89.927 52.0974 89.9987 51.8299L91.0371 47.9546L94.8891 48.9867C95.1551 49.058 95.4287 48.8988 95.5004 48.6313C95.5721 48.3638 95.4146 48.0891 95.1487 48.0179L90.8152 46.8567ZM111.42 82.5006L91.1176 47.0898L90.2531 47.5924L110.556 83.0033L111.42 82.5006Z" fill="#ff0000 "/>
<path class="img-cpe_roof_left_270" d="M85.1415 36.8952C85.4074 36.9665 85.6811 36.8074 85.7528 36.5398L86.921 32.1801C86.9927 31.9126 86.8352 31.6379 86.5693 31.5667C86.3033 31.4954 86.0297 31.6545 85.958 31.9221L84.9196 35.7974L81.0676 34.7653C80.8016 34.694 80.5279 34.8531 80.4562 35.1207C80.3846 35.3882 80.542 35.6628 80.808 35.7341L85.1415 36.8952ZM64.5364 1.25131L84.8391 36.6621L85.7036 36.1595L65.4009 0.748694L64.5364 1.25131Z" fill="#ff0000 "/>
<path class="img-cpe_wall_left_270" d="M40.958 129.082C41.1528 128.886 41.1528 128.569 40.958 128.373L37.7844 125.183C37.5896 124.987 37.2738 124.987 37.0791 125.183C36.8843 125.379 36.8843 125.696 37.0791 125.892L39.9001 128.728L37.0791 131.563C36.8843 131.759 36.8843 132.076 37.0791 132.272C37.2738 132.468 37.5896 132.468 37.7844 132.272L40.958 129.082ZM-7.61507e-06 129.229L40.6054 129.229L40.6054 128.226L-7.64372e-06 128.226L-7.61507e-06 129.229Z" fill="#ff0000 "/>
<path class="img-cpi_wall_left" d="M54.4388 128.752C54.2441 128.948 54.2441 129.265 54.4388 129.461L57.6125 132.651C57.8072 132.847 58.123 132.847 58.3177 132.651C58.5125 132.455 58.5125 132.138 58.3177 131.942L55.4967 129.106L58.3177 126.271C58.5125 126.075 58.5125 125.757 58.3177 125.562C58.123 125.366 57.8072 125.366 57.6125 125.562L54.4388 128.752ZM95.3968 128.605L54.7914 128.605L54.7914 129.608L95.3968 129.608L95.3968 128.605Z" fill="#ff0000 "/>
<path class="img-cpi_wall_right" d="M212.854 129.082C213.049 128.886 213.049 128.569 212.854 128.373L209.681 125.183C209.486 124.987 209.17 124.987 208.975 125.183C208.78 125.379 208.78 125.696 208.975 125.892L211.796 128.728L208.975 131.563C208.78 131.759 208.78 132.076 208.975 132.272C209.17 132.468 209.486 132.468 209.681 132.272L212.854 129.082ZM171.896 129.229L212.502 129.229L212.502 128.226L171.896 128.226L171.896 129.229Z" fill="#ff0000 "/>
<path class="img-cpe_wall_right_270" d="M229.042 128.752C228.847 128.948 228.847 129.265 229.042 129.461L232.216 132.651C232.41 132.847 232.726 132.847 232.921 132.651C233.116 132.455 233.116 132.138 232.921 131.942L230.1 129.106L232.921 126.271C233.116 126.075 233.116 125.757 232.921 125.562C232.726 125.366 232.41 125.366 232.216 125.562L229.042 128.752ZM270 128.605L229.395 128.605L229.395 129.608L270 129.608L270 128.605Z" fill="#ff0000 "/>
<path class="img-cpi_roof_right" d="M181.526 47.0219C181.455 46.7542 181.182 46.5955 180.917 46.6674L176.586 47.8399C176.32 47.9119 176.163 48.1873 176.234 48.455C176.305 48.7227 176.578 48.8814 176.843 48.8095L180.693 47.7672L181.721 51.6452C181.792 51.913 182.065 52.0717 182.331 51.9997C182.596 51.9278 182.754 51.6524 182.683 51.3847L181.526 47.0219ZM161.174 82.8136L181.476 47.4028L180.614 46.9015L160.311 82.3123L161.174 82.8136Z" fill="#ff0000 "/>
<path class="img-cpe_roof_right_270" d="M186.629 38.0938C186.7 38.3616 186.973 38.5203 187.239 38.4483L191.569 37.2758C191.835 37.2038 191.993 36.9285 191.922 36.6607C191.851 36.393 191.578 36.2343 191.312 36.3063L187.463 37.3485L186.435 33.4705C186.364 33.2028 186.091 33.0441 185.825 33.116C185.559 33.188 185.401 33.4633 185.472 33.731L186.629 38.0938ZM206.982 2.30208L186.679 37.7129L187.541 38.2142L207.844 2.80338L206.982 2.30208Z" fill="#ff0000 "/>
</svg>
