<svg width="231" height="187" viewBox="0 0 231 187" fill="none" xmlns="http://www.w3.org/2000/svg">
<rect x="37.0634" y="79.7217" width="4.9184" height="106.778" fill="#C4C4C4" stroke="black"/>
<rect x="188.574" y="79.7217" width="4.9184" height="106.778" fill="#C4C4C4" stroke="black"/>
<rect x="37.0634" y="182.601" width="156.43" height="3.899" fill="#C4C4C4" stroke="black"/>
<rect x="0.672875" y="0.180205" width="97.0575" height="3.85845" transform="matrix(0.858483 -0.512842 0.487267 0.873253 32.7893 82.1135)" fill="#C4C4C4" stroke="black"/>
<rect x="0.185608" y="0.693048" width="94.5264" height="3.85845" transform="matrix(0.858483 0.512842 -0.487267 0.873253 117.418 31.4492)" fill="#C4C4C4" stroke="black"/>
<g class="effort-left-roof-180" >
    <path class="arrows-img" d="M36.5554 34.3603C36.2925 34.2905 36.0211 34.4534 35.9492 34.7242L34.7776 39.1378C34.7057 39.4087 34.8606 39.6849 35.1234 39.7548C35.3863 39.8247 35.6577 39.6618 35.7296 39.3909L36.771 35.4677L40.5787 36.4802C40.8416 36.55 41.1129 36.3871 41.1848 36.1163C41.2567 35.8455 41.1019 35.5692 40.8391 35.4993L36.5554 34.3603ZM55.6491 68.1285L36.8538 34.5935L35.9966 35.108L54.7919 68.643L55.6491 68.1285Z" fill="#ff0000"/>
    <path class="arrows-img" d="M75.0337 11.8951C74.7707 11.8257 74.4996 11.989 74.4281 12.2599L73.2632 16.6753C73.1917 16.9463 73.3469 17.2222 73.6099 17.2917C73.8729 17.3612 74.144 17.1979 74.2155 16.9269L75.251 13.0021L79.0603 14.0085C79.3233 14.078 79.5945 13.9146 79.6659 13.6437C79.7374 13.3727 79.5822 13.0968 79.3192 13.0273L75.0337 11.8951ZM93.6906 44.764L75.3325 12.1278L74.4761 12.6437L92.8341 45.2799L93.6906 44.764Z" fill="#ff0000"/>
    <path class="arrows-img" d="M93.4987 0.696085C93.2349 0.626238 92.9631 0.788552 92.8916 1.05862L91.7262 5.4597C91.6547 5.72977 91.8106 6.00533 92.0743 6.07518C92.3381 6.14503 92.6099 5.98271 92.6814 5.71264L93.7173 1.80057L97.5382 2.81233C97.802 2.88217 98.0738 2.71986 98.1453 2.44979C98.2168 2.17972 98.061 1.90416 97.7972 1.83431L93.4987 0.696085ZM112.494 33.9824L93.7985 0.92874L92.9399 1.44145L111.635 34.4951L112.494 33.9824Z" fill="#ff0000"/>
    <path class="arrows-img" d="M15.857 46.4121C15.5931 46.3429 15.3217 46.5059 15.2509 46.7762L14.0964 51.1803C14.0255 51.4506 14.1821 51.7257 14.446 51.7949C14.71 51.8641 14.9814 51.7011 15.0522 51.4308L16.0784 47.5161L19.9016 48.5183C20.1656 48.5875 20.437 48.4245 20.5078 48.1542C20.5787 47.884 20.4221 47.6088 20.1582 47.5396L15.857 46.4121ZM35.5351 80.7084L16.1574 46.644L15.3001 47.1589L34.6778 81.2233L35.5351 80.7084Z" fill="#ff0000"/>
    <path class="arrows-img" d="M55.2148 23.9486C54.9514 23.8772 54.6786 24.0378 54.6055 24.3075L53.4141 28.7012C53.341 28.9708 53.4952 29.2473 53.7586 29.3187C54.0219 29.3901 54.2947 29.2294 54.3678 28.9598L55.4269 25.0543L59.242 26.0888C59.5054 26.1602 59.7781 25.9995 59.8512 25.7299C59.9244 25.4603 59.7701 25.1838 59.5067 25.1124L55.2148 23.9486ZM74.0164 57.3488L55.5132 24.183L54.6516 24.6905L73.1547 57.8563L74.0164 57.3488Z" fill="#ff0000"/>
</g>
<g class="effort-left-wall-180" >
    <path class="arrows-img" d="M0.647385 134.262C0.452626 134.457 0.452613 134.775 0.647357 134.971L3.82088 138.161C4.01563 138.357 4.33138 138.357 4.52614 138.161C4.7209 137.965 4.72091 137.648 4.52617 137.452L1.70526 134.616L4.52639 131.781C4.72115 131.585 4.72116 131.267 4.52642 131.072C4.33168 130.876 4.01592 130.876 3.82116 131.072L0.647385 134.262ZM36.5104 134.116L1.00002 134.115L0.999979 135.118L36.5104 135.119L36.5104 134.116Z" fill="#ff0000"/>
    <path class="arrows-img" d="M0.647385 89.5972C0.452626 89.7929 0.452613 90.1103 0.647357 90.3061L3.82088 93.4965C4.01563 93.6923 4.33138 93.6923 4.52614 93.4965C4.7209 93.3008 4.72091 92.9834 4.52617 92.7876L1.70526 89.9517L4.52639 87.116C4.72115 86.9203 4.72116 86.6028 4.52642 86.4071C4.33168 86.2113 4.01592 86.2113 3.82116 86.407L0.647385 89.5972ZM36.5104 89.4518L1.00002 89.4504L0.999979 90.453L36.5104 90.4544L36.5104 89.4518Z" fill="#ff0000"/>
    <path class="arrows-img" d="M0.647385 179.456C0.452626 179.652 0.452613 179.969 0.647357 180.165L3.82088 183.355C4.01563 183.551 4.33138 183.551 4.52614 183.355C4.7209 183.16 4.72091 182.842 4.52617 182.646L1.70526 179.811L4.52639 176.975C4.72115 176.779 4.72116 176.462 4.52642 176.266C4.33168 176.07 4.01592 176.07 3.82116 176.266L0.647385 179.456ZM36.5104 179.311L1.00002 179.309L0.999979 180.312L36.5104 180.313L36.5104 179.311Z" fill="#ff0000"/>
    <path class="arrows-img" d="M0.647385 112.695C0.452626 112.891 0.452613 113.208 0.647357 113.404L3.82088 116.595C4.01563 116.79 4.33138 116.79 4.52614 116.595C4.7209 116.399 4.72091 116.082 4.52617 115.886L1.70526 113.05L4.52639 110.214C4.72115 110.018 4.72116 109.701 4.52642 109.505C4.33168 109.309 4.01592 109.309 3.82116 109.505L0.647385 112.695ZM36.5104 112.55L1.00002 112.548L0.999979 113.551L36.5104 113.553L36.5104 112.55Z" fill="#ff0000"/>
    <path class="arrows-img" d="M0.647385 156.992C0.452626 157.187 0.452613 157.505 0.647357 157.701L3.82088 160.891C4.01563 161.087 4.33138 161.087 4.52614 160.891C4.7209 160.695 4.72091 160.378 4.52617 160.182L1.70526 157.346L4.52639 154.511C4.72115 154.315 4.72116 153.997 4.52642 153.802C4.33168 153.606 4.01592 153.606 3.82116 153.802L0.647385 156.992ZM36.5104 156.846L1.00002 156.845L0.999979 157.847L36.5104 157.849L36.5104 156.846Z" fill="#ff0000"/>
</g>
<g class="effort-right-wall-180" >
    <path class="arrows-img" d="M230.133 180.166C230.328 179.97 230.328 179.652 230.133 179.457L226.959 176.266C226.765 176.071 226.449 176.071 226.254 176.266C226.059 176.462 226.059 176.779 226.254 176.975L229.075 179.811L226.254 182.647C226.059 182.843 226.059 183.16 226.254 183.356C226.449 183.552 226.765 183.552 226.959 183.356L230.133 180.166ZM194.27 180.312H229.78L229.78 179.31H194.27L194.27 180.312Z" fill="#ff0000"/>
    <path class="arrows-img" d="M230.133 157.701C230.328 157.505 230.328 157.187 230.133 156.992L226.959 153.801C226.765 153.606 226.449 153.606 226.254 153.801C226.059 153.997 226.059 154.315 226.254 154.51L229.075 157.346L226.254 160.182C226.059 160.378 226.059 160.695 226.254 160.891C226.449 161.087 226.765 161.087 226.959 160.891L230.133 157.701ZM194.27 157.847H229.78L229.78 156.845H194.27L194.27 157.847Z" fill="#ff0000"/>
    <path class="arrows-img" d="M231.353 90.3545C231.547 90.1587 231.547 89.8413 231.353 89.6455L228.179 86.4553C227.984 86.2595 227.668 86.2595 227.474 86.4553C227.279 86.651 227.279 86.9684 227.474 87.1642L230.295 90L227.474 92.8358C227.279 93.0316 227.279 93.349 227.474 93.5447C227.668 93.7405 227.984 93.7405 228.179 93.5447L231.353 90.3545ZM194.27 90.5013H231L231 89.4987H194.27L194.27 90.5013Z" fill="#ff0000"/>
    <path class="arrows-img" d="M230.133 113.669C230.328 113.474 230.328 113.156 230.133 112.96L226.959 109.77C226.765 109.574 226.449 109.574 226.254 109.77C226.059 109.966 226.059 110.283 226.254 110.479L229.075 113.315L226.254 116.151C226.059 116.346 226.059 116.664 226.254 116.86C226.449 117.055 226.765 117.055 226.959 116.86L230.133 113.669ZM194.27 113.816H229.78L229.78 112.814H194.27L194.27 113.816Z" fill="#ff0000"/>
    <path class="arrows-img" d="M230.133 135.236C230.328 135.04 230.328 134.723 230.133 134.527L226.959 131.337C226.765 131.141 226.449 131.141 226.254 131.337C226.059 131.532 226.059 131.85 226.254 132.046L229.075 134.881L226.254 137.717C226.059 137.913 226.059 138.23 226.254 138.426C226.449 138.622 226.765 138.622 226.959 138.426L230.133 135.236ZM194.27 135.383H229.78L229.78 134.38H194.27L194.27 135.383Z" fill="#ff0000"/>

</g>
<g class="effort-right-roof-180" >
    <path class="arrows-img" d="M176.638 24.1406C176.563 23.8705 176.291 23.711 176.029 23.7844L171.76 24.9811C171.498 25.0546 171.346 25.3331 171.42 25.6032C171.494 25.8734 171.767 26.0329 172.028 25.9594L175.823 24.8957L176.898 28.8089C176.972 29.0791 177.245 29.2385 177.507 29.1651C177.769 29.0917 177.921 28.8131 177.847 28.543L176.638 24.1406ZM159.116 56.5072L176.594 24.5255L175.733 24.0217L158.255 56.0035L159.116 56.5072Z" fill="#ff0000"/>
    <path class="arrows-img" d="M215.117 46.6055C215.042 46.3353 214.77 46.1758 214.508 46.2493L210.239 47.446C209.977 47.5194 209.825 47.7979 209.899 48.0681C209.973 48.3382 210.246 48.4977 210.508 48.4243L214.302 47.3606L215.377 51.2738C215.451 51.5439 215.724 51.7034 215.986 51.63C216.248 51.5565 216.4 51.278 216.326 51.0078L215.117 46.6055ZM197.595 78.9721L215.073 46.9903L214.212 46.4866L196.734 78.4684L197.595 78.9721Z" fill="#ff0000"/>
    <path class="arrows-img" d="M196.752 35.8223C196.677 35.5521 196.405 35.3926 196.143 35.4661L191.874 36.6628C191.612 36.7362 191.46 37.0147 191.534 37.2849C191.608 37.555 191.881 37.7145 192.143 37.6411L195.937 36.5773L197.012 40.4906C197.086 40.7607 197.359 40.9202 197.621 40.8467C197.883 40.7733 198.035 40.4948 197.961 40.2246L196.752 35.8223ZM179.23 68.1889L196.708 36.2071L195.847 35.7034L178.369 67.6851L179.23 68.1889Z" fill="#ff0000"/>
    <path class="arrows-img" d="M138.158 0.777345C138.084 0.507194 137.812 0.347723 137.55 0.421158L133.281 1.61784C133.019 1.69127 132.866 1.9698 132.941 2.23995C133.015 2.51011 133.287 2.66958 133.549 2.59614L137.344 1.53243L138.419 5.44564C138.493 5.71579 138.766 5.87526 139.028 5.80183C139.29 5.72839 139.442 5.44986 139.368 5.17971L138.158 0.777345ZM120.637 33.144L138.115 1.16217L137.254 0.658447L119.776 32.6402L120.637 33.144Z" fill="#ff0000"/>
    <path class="arrows-img" d="M157.398 12.459C157.324 12.1888 157.051 12.0294 156.789 12.1028L152.52 13.2995C152.258 13.3729 152.106 13.6514 152.18 13.9216C152.254 14.1917 152.527 14.3512 152.789 14.2778L156.584 13.2141L157.659 17.1273C157.733 17.3974 158.005 17.5569 158.267 17.4835C158.529 17.41 158.681 17.1315 158.607 16.8614L157.398 12.459ZM139.876 44.8256L157.354 12.8438L156.493 12.3401L139.016 44.3219L139.876 44.8256Z" fill="#ff0000"/>
</g>
</svg>
