<svg width="200" height="137" viewBox="0 0 200 137" fill="none" xmlns="http://www.w3.org/2000/svg">
<rect x="33.5" y="49.5" width="4" height="87" fill="#C4C4C4" stroke="black"/>
<rect x="161.5" y="49.5" width="4" height="87" fill="#C4C4C4" stroke="black"/>
<rect x="33.5" y="133.5" width="132" height="3" fill="#C4C4C4" stroke="black"/>
<rect x="30.4883" y="51.2431" width="81.1197" height="3" transform="rotate(-30 30.4883 51.2431)" fill="#C4C4C4" stroke="black"/>
<rect x="101.183" y="10.683" width="79" height="3" transform="rotate(30 101.183 10.683)" fill="#C4C4C4" stroke="black"/>
<path d="M67.1294 35.5172C66.8627 35.4458 66.5885 35.6041 66.517 35.8708L65.3524 40.2175C65.2809 40.4842 65.4392 40.7584 65.7059 40.8298C65.9726 40.9013 66.2468 40.743 66.3183 40.4763L67.3536 36.6126L71.2173 37.6478C71.484 37.7193 71.7582 37.561 71.8296 37.2943C71.9011 37.0276 71.7428 36.7534 71.4761 36.6819L67.1294 35.5172ZM82.433 61.731L67.433 35.7502L66.567 36.2502L81.567 62.231L82.433 61.731Z" fill="#B2B2B2"/>
<path d="M62.8706 28.4637C63.1373 28.5352 63.4115 28.3769 63.483 28.1102L64.6476 23.7635C64.7191 23.4968 64.5608 23.2226 64.2941 23.1511C64.0274 23.0797 63.7532 23.238 63.6817 23.5047L62.6464 27.3684L58.7827 26.3331C58.516 26.2616 58.2418 26.4199 58.1704 26.6867C58.0989 26.9534 58.2572 27.2276 58.5239 27.299L62.8706 28.4637ZM47.567 2.25L62.567 28.2308L63.433 27.7308L48.433 1.75L47.567 2.25Z" fill="#B2B2B2"/>
<path d="M30.3536 96.0664C30.5488 95.8712 30.5488 95.5546 30.3536 95.3593L27.1716 92.1774C26.9763 91.9821 26.6597 91.9821 26.4645 92.1774C26.2692 92.3726 26.2692 92.6892 26.4645 92.8845L29.2929 95.7129L26.4645 98.5413C26.2692 98.7366 26.2692 99.0532 26.4645 99.2484C26.6597 99.4437 26.9763 99.4437 27.1716 99.2484L30.3536 96.0664ZM0 96.2129H30V95.2129H0V96.2129Z" fill="#B2B2B2"/>
<path d="M40.1274 95.6372C39.9321 95.8324 39.9321 96.149 40.1274 96.3443L43.3094 99.5263C43.5046 99.7215 43.8212 99.7215 44.0165 99.5263C44.2117 99.331 44.2117 99.0144 44.0165 98.8191L41.188 95.9907L44.0165 93.1623C44.2117 92.967 44.2117 92.6505 44.0165 92.4552C43.8212 92.2599 43.5046 92.2599 43.3094 92.4552L40.1274 95.6372ZM70.4809 95.4907H40.4809V96.4907H70.4809V95.4907Z" fill="#B2B2B2"/>
<path d="M157.354 96.0664C157.549 95.8712 157.549 95.5546 157.354 95.3593L154.172 92.1774C153.976 91.9821 153.66 91.9821 153.464 92.1774C153.269 92.3726 153.269 92.6892 153.464 92.8845L156.293 95.7129L153.464 98.5413C153.269 98.7366 153.269 99.0532 153.464 99.2484C153.66 99.4437 153.976 99.4437 154.172 99.2484L157.354 96.0664ZM127 96.2129H157V95.2129H127V96.2129Z" fill="#B2B2B2"/>
<path d="M169.127 95.6372C168.932 95.8324 168.932 96.149 169.127 96.3443L172.309 99.5263C172.505 99.7215 172.821 99.7215 173.016 99.5263C173.212 99.331 173.212 99.0144 173.016 98.8191L170.188 95.9907L173.016 93.1623C173.212 92.967 173.212 92.6505 173.016 92.4552C172.821 92.2599 172.505 92.2599 172.309 92.4552L169.127 95.6372ZM199.481 95.4907H169.481V96.4907H199.481V95.4907Z" fill="#B2B2B2"/>
<path d="M134.242 35.7321C134.171 35.4654 133.897 35.3071 133.63 35.3786L129.283 36.5432C129.017 36.6147 128.858 36.8889 128.93 37.1556C129.001 37.4224 129.276 37.5806 129.542 37.5092L133.406 36.4739L134.441 40.3376C134.513 40.6043 134.787 40.7626 135.054 40.6912C135.32 40.6197 135.479 40.3455 135.407 40.0788L134.242 35.7321ZM119.193 62.0923L134.193 36.1115L133.327 35.6115L118.327 61.5923L119.193 62.0923Z" fill="#B2B2B2"/>
<path d="M137.758 29.2493C137.829 29.5161 138.103 29.6744 138.37 29.6029L142.717 28.4382C142.983 28.3667 143.142 28.0926 143.07 27.8258C142.999 27.5591 142.724 27.4008 142.458 27.4723L138.594 28.5076L137.559 24.6438C137.487 24.3771 137.213 24.2188 136.946 24.2903C136.68 24.3618 136.521 24.6359 136.593 24.9027L137.758 29.2493ZM152.807 2.88916L137.807 28.8699L138.673 29.3699L153.673 3.38916L152.807 2.88916Z" fill="#B2B2B2"/>
</svg>
