<svg width="36" height="33" viewBox="0 0 36 33" fill="none" xmlns="http://www.w3.org/2000/svg">
<g clip-path="url(#clip0)">
<path d="M22.7068 4.03754L35.2742 23.9911C35.7351 24.7229 36.0001 25.5712 36.0001 26.4768C36.0001 29.227 33.5679 31.4567 30.5675 31.4567H18.0001L13.6541 16.5001L18.0001 1.54346C20.0125 1.54346 21.768 2.54719 22.7068 4.03754Z" fill="#3B4145"/>
<path d="M13.2934 4.03754L0.725836 23.9911C0.265008 24.7229 0 25.5712 0 26.4768C0 29.227 2.43225 31.4567 5.43262 31.4567H18V1.54346C15.9877 1.54346 14.2322 2.54719 13.2934 4.03754Z" fill="#525A61"/>
<path d="M33.3924 24.9871L20.825 5.03371C20.2586 4.13401 19.2184 3.56631 18.0935 3.53711L28.8421 29.465H30.5675C32.3646 29.465 33.8271 28.1245 33.8271 26.4771C33.8271 25.9538 33.6764 25.4386 33.3924 24.9871Z" fill="#FFB751"/>
<path d="M31.2787 24.9872C31.5243 25.4386 31.6539 25.9539 31.6539 26.4771C31.6539 28.1245 30.3929 29.465 28.842 29.465H5.43264C3.63553 29.465 2.1731 28.1245 2.1731 26.4771C2.1731 25.9539 2.32378 25.4386 2.6077 24.9872L15.1751 5.03376C15.7575 4.1095 16.8396 3.53516 18 3.53516C18.0312 3.53516 18.0623 3.5358 18.0935 3.53715C19.059 3.5717 19.9507 4.13805 20.4367 5.03376L31.2787 24.9872Z" fill="#FFD764"/>
<path d="M18 22.8247V26.1446C19.0003 26.1446 19.8109 25.4016 19.8109 24.4846C19.8109 23.5677 19.0003 22.8247 18 22.8247Z" fill="#3B4145"/>
<path d="M18.0001 22.8247C18.2 22.8247 18.3623 23.5677 18.3623 24.4847C18.3623 25.4017 18.2 26.1447 18.0001 26.1447C16.9998 26.1447 16.1892 25.4017 16.1892 24.4847C16.1892 23.5677 16.9998 22.8247 18.0001 22.8247Z" fill="#525A61"/>
<path d="M18 8.54956V20.8333C19.0003 20.8333 19.8109 20.0896 19.8109 19.1733V10.2096C19.8109 9.29258 19.0003 8.54956 18 8.54956Z" fill="#3B4145"/>
<path d="M18.0001 8.54956C18.2 8.54956 18.3623 9.29258 18.3623 10.2096V19.1733C18.3623 20.0896 18.2 20.8333 18.0001 20.8333C16.9998 20.8333 16.1892 20.0896 16.1892 19.1733V10.2096C16.1892 9.29258 16.9998 8.54956 18.0001 8.54956Z" fill="#525A61"/>
</g>
<defs>
<clipPath id="clip0">
<rect width="36" height="33" fill="white"/>
</clipPath>
</defs>
</svg>
