<svg width="221" height="314" viewBox="0 0 221 314" fill="none" xmlns="http://www.w3.org/2000/svg">
<path d="M110.731 267.913C111.736 267.913 112.599 268.095 113.318 268.459C114.037 268.823 114.588 269.347 114.969 270.032C115.35 270.717 115.541 271.531 115.541 272.476C115.541 273.412 115.35 274.222 114.969 274.907C114.588 275.583 114.037 276.103 113.318 276.467C112.599 276.822 111.736 277 110.731 277H108.04V267.913H110.731ZM110.731 276.246C111.996 276.246 112.958 275.917 113.617 275.258C114.284 274.591 114.618 273.663 114.618 272.476C114.618 271.28 114.284 270.348 113.617 269.681C112.958 269.005 111.996 268.667 110.731 268.667H108.95V276.246H110.731Z" fill="black"/>
<path d="M105.396 103.961C105.396 103.069 105.591 102.271 105.981 101.569C106.371 100.859 106.904 100.308 107.58 99.9182C108.256 99.5196 109.01 99.3202 109.842 99.3202C110.856 99.3202 111.723 99.5629 112.442 100.048C113.17 100.525 113.699 101.201 114.028 102.076H112.962C112.702 101.461 112.303 100.98 111.766 100.633C111.237 100.287 110.596 100.113 109.842 100.113C109.175 100.113 108.572 100.269 108.035 100.581C107.506 100.893 107.09 101.344 106.787 101.933C106.484 102.514 106.332 103.19 106.332 103.961C106.332 104.733 106.484 105.409 106.787 105.989C107.09 106.57 107.506 107.016 108.035 107.328C108.572 107.64 109.175 107.796 109.842 107.796C110.596 107.796 111.237 107.627 111.766 107.289C112.303 106.943 112.702 106.466 112.962 105.859H114.028C113.699 106.726 113.17 107.398 112.442 107.874C111.714 108.351 110.847 108.589 109.842 108.589C109.01 108.589 108.256 108.394 107.58 108.004C106.904 107.606 106.371 107.055 105.981 106.353C105.591 105.651 105.396 104.854 105.396 103.961Z" fill="black"/>
<path d="M71.983 120.207H67.849L67.056 122.365H66.094L69.409 113.395H70.436L73.738 122.365H72.776L71.983 120.207ZM71.71 119.453L69.916 114.539L68.122 119.453H71.71ZM74.5614 113.863V113.044H76.7714V122.365H75.8484V113.863H74.5614Z" fill="black"/>
<path d="M146.03 117.672C146.541 117.767 146.974 118.027 147.33 118.452C147.685 118.876 147.863 119.37 147.863 119.934C147.863 120.393 147.746 120.809 147.512 121.182C147.286 121.546 146.953 121.836 146.511 122.053C146.069 122.261 145.54 122.365 144.925 122.365H141.779V113.278H144.834C145.752 113.278 146.45 113.49 146.927 113.915C147.412 114.339 147.655 114.89 147.655 115.566C147.655 116.129 147.503 116.588 147.2 116.944C146.896 117.29 146.506 117.533 146.03 117.672ZM142.689 117.295H144.808C145.423 117.295 145.895 117.152 146.225 116.866C146.563 116.571 146.732 116.168 146.732 115.657C146.732 115.154 146.563 114.76 146.225 114.474C145.895 114.188 145.41 114.045 144.769 114.045H142.689V117.295ZM144.86 121.598C145.518 121.598 146.03 121.442 146.394 121.13C146.766 120.818 146.953 120.389 146.953 119.843C146.953 119.297 146.758 118.863 146.368 118.543C145.986 118.213 145.471 118.049 144.821 118.049H142.689V121.598H144.86ZM148.898 113.863V113.044H151.108V122.365H150.185V113.863H148.898Z" fill="black"/>
<path d="M70.4192 175.621H66.2852L65.4922 177.779H64.5302L67.8452 168.809H68.8722L72.1742 177.779H71.2122L70.4192 175.621ZM70.1462 174.867L68.3522 169.953L66.5582 174.867H70.1462ZM73.2577 177.064C74.8523 175.868 76.083 174.797 76.9497 173.853C77.825 172.899 78.2627 171.968 78.2627 171.058C78.2627 170.46 78.111 169.983 77.8077 169.628C77.513 169.264 77.0277 169.082 76.3517 169.082C75.693 169.082 75.1817 169.29 74.8177 169.706C74.4623 170.113 74.263 170.659 74.2197 171.344H73.3357C73.3877 170.382 73.6823 169.636 74.2197 169.108C74.7657 168.57 75.4763 168.302 76.3517 168.302C77.1923 168.302 77.8727 168.54 78.3927 169.017C78.9127 169.485 79.1727 170.152 79.1727 171.019C79.1727 172.067 78.735 173.086 77.8597 174.074C76.993 175.053 75.9227 176.011 74.6487 176.947H79.4587V177.714H73.2577V177.064Z" fill="black"/>
<path d="M142.902 173.086C143.413 173.181 143.847 173.441 144.202 173.866C144.557 174.29 144.735 174.784 144.735 175.348C144.735 175.807 144.618 176.223 144.384 176.596C144.159 176.96 143.825 177.25 143.383 177.467C142.941 177.675 142.412 177.779 141.797 177.779H138.651V168.692H141.706C142.625 168.692 143.322 168.904 143.799 169.329C144.284 169.753 144.527 170.304 144.527 170.98C144.527 171.543 144.375 172.002 144.072 172.358C143.769 172.704 143.379 172.947 142.902 173.086ZM139.561 172.709H141.68C142.295 172.709 142.768 172.566 143.097 172.28C143.435 171.985 143.604 171.582 143.604 171.071C143.604 170.568 143.435 170.174 143.097 169.888C142.768 169.602 142.282 169.459 141.641 169.459H139.561V172.709ZM141.732 177.012C142.391 177.012 142.902 176.856 143.266 176.544C143.639 176.232 143.825 175.803 143.825 175.257C143.825 174.711 143.63 174.277 143.24 173.957C142.859 173.627 142.343 173.463 141.693 173.463H139.561V177.012H141.732ZM146.031 177.064C147.625 175.868 148.856 174.797 149.723 173.853C150.598 172.899 151.036 171.968 151.036 171.058C151.036 170.46 150.884 169.983 150.581 169.628C150.286 169.264 149.801 169.082 149.125 169.082C148.466 169.082 147.955 169.29 147.591 169.706C147.235 170.113 147.036 170.659 146.993 171.344H146.109C146.161 170.382 146.455 169.636 146.993 169.108C147.539 168.57 148.249 168.302 149.125 168.302C149.965 168.302 150.646 168.54 151.166 169.017C151.686 169.485 151.946 170.152 151.946 171.019C151.946 172.067 151.508 173.086 150.633 174.074C149.766 175.053 148.696 176.011 147.422 176.947H152.232V177.714H146.031V177.064Z" fill="black"/>
<path d="M70.4192 246.62H66.2852L65.4922 248.778H64.5302L67.8452 239.808H68.8722L72.1742 248.778H71.2122L70.4192 246.62ZM70.1462 245.866L68.3522 240.952L66.5582 245.866H70.1462ZM73.4007 241.836C73.4613 241.048 73.7647 240.428 74.3107 239.977C74.8653 239.518 75.5803 239.288 76.4557 239.288C77.0363 239.288 77.5347 239.392 77.9507 239.6C78.3667 239.808 78.6787 240.094 78.8867 240.458C79.1033 240.814 79.2117 241.217 79.2117 241.667C79.2117 242.213 79.0513 242.686 78.7307 243.084C78.41 243.483 77.955 243.73 77.3657 243.825V243.89C77.981 244.012 78.4707 244.28 78.8347 244.696C79.1987 245.104 79.3807 245.641 79.3807 246.308C79.3807 247.054 79.1293 247.665 78.6267 248.141C78.1327 248.609 77.4133 248.843 76.4687 248.843C75.5673 248.843 74.8263 248.609 74.2457 248.141C73.665 247.665 73.3313 246.993 73.2447 246.126H74.1287C74.2067 246.707 74.4493 247.179 74.8567 247.543C75.264 247.899 75.8013 248.076 76.4687 248.076C77.1273 248.076 77.63 247.903 77.9767 247.556C78.332 247.21 78.5097 246.768 78.5097 246.23C78.5097 244.913 77.5607 244.254 75.6627 244.254H75.3767V243.487H75.6757C77.4437 243.487 78.3277 242.911 78.3277 241.758C78.3277 241.256 78.163 240.853 77.8337 240.549C77.5043 240.237 77.0363 240.081 76.4297 240.081C75.8403 240.081 75.3507 240.237 74.9607 240.549C74.5793 240.853 74.354 241.282 74.2847 241.836H73.4007Z" fill="black"/>
<path d="M142.902 244.085C143.413 244.181 143.847 244.441 144.202 244.865C144.557 245.29 144.735 245.784 144.735 246.347C144.735 246.807 144.618 247.223 144.384 247.595C144.159 247.959 143.825 248.25 143.383 248.466C142.941 248.674 142.412 248.778 141.797 248.778H138.651V239.691H141.706C142.625 239.691 143.322 239.904 143.799 240.328C144.284 240.753 144.527 241.303 144.527 241.979C144.527 242.543 144.375 243.002 144.072 243.357C143.769 243.704 143.379 243.947 142.902 244.085ZM139.561 243.708H141.68C142.295 243.708 142.768 243.565 143.097 243.279C143.435 242.985 143.604 242.582 143.604 242.07C143.604 241.568 143.435 241.173 143.097 240.887C142.768 240.601 142.282 240.458 141.641 240.458H139.561V243.708ZM141.732 248.011C142.391 248.011 142.902 247.855 143.266 247.543C143.639 247.231 143.825 246.802 143.825 246.256C143.825 245.71 143.63 245.277 143.24 244.956C142.859 244.627 142.343 244.462 141.693 244.462H139.561V248.011H141.732ZM146.174 241.836C146.234 241.048 146.538 240.428 147.084 239.977C147.638 239.518 148.353 239.288 149.229 239.288C149.809 239.288 150.308 239.392 150.724 239.6C151.14 239.808 151.452 240.094 151.66 240.458C151.876 240.814 151.985 241.217 151.985 241.667C151.985 242.213 151.824 242.686 151.504 243.084C151.183 243.483 150.728 243.73 150.139 243.825V243.89C150.754 244.012 151.244 244.28 151.608 244.696C151.972 245.104 152.154 245.641 152.154 246.308C152.154 247.054 151.902 247.665 151.4 248.141C150.906 248.609 150.186 248.843 149.242 248.843C148.34 248.843 147.599 248.609 147.019 248.141C146.438 247.665 146.104 246.993 146.018 246.126H146.902C146.98 246.707 147.222 247.179 147.63 247.543C148.037 247.899 148.574 248.076 149.242 248.076C149.9 248.076 150.403 247.903 150.75 247.556C151.105 247.21 151.283 246.768 151.283 246.23C151.283 244.913 150.334 244.254 148.436 244.254H148.15V243.487H148.449C150.217 243.487 151.101 242.911 151.101 241.758C151.101 241.256 150.936 240.853 150.607 240.549C150.277 240.237 149.809 240.081 149.203 240.081C148.613 240.081 148.124 240.237 147.734 240.549C147.352 240.853 147.127 241.282 147.058 241.836H146.174Z" fill="black"/>
<rect x="158.44" y="204.839" width="5.25504" height="85.5845" fill="#C4C4C4" stroke="black"/>
<rect x="158.44" y="140.767" width="5.25504" height="64.8042" fill="#C4C4C4" stroke="black"/>
<rect x="158.44" y="88.8162" width="5.25504" height="54.4141" fill="#C4C4C4" stroke="black"/>
<rect x="55.2316" y="204.839" width="5.25504" height="83.8528" fill="#C4C4C4" stroke="black"/>
<rect x="55.2316" y="142.499" width="5.25504" height="63.0726" fill="#C4C4C4" stroke="black"/>
<rect x="55.2316" y="88.8162" width="5.25504" height="54.4141" fill="#C4C4C4" stroke="black"/>
<rect x="55.2316" y="286.229" width="108.463" height="5.92676" fill="#C4C4C4" stroke="black"/>
<rect x="55.2316" y="85.3528" width="108.463" height="5.92676" fill="#C4C4C4" stroke="black"/>
<path d="M58.9483 46.7556H59.8976V76.9399H63.6946L64.1142 77.6138L59.8425 85.4172H59.0034L54.7316 77.6138L55.1512 76.9399H58.9483V46.7556ZM55.9396 77.858L59.4229 84.221L62.9063 77.858H59.4229L55.9396 77.858Z" fill="#B2B2B2"/>
<path d="M83.9685 46.7556H84.9177V76.9399H88.7148L89.1344 77.6138L84.8627 85.4172H84.0235L79.7518 77.6138L80.1714 76.9399H83.9685V46.7556ZM80.9597 77.858L84.4431 84.221L87.9265 77.858H84.4431L80.9597 77.858Z" fill="#B2B2B2"/>
<path d="M137.136 46.7556H138.086V76.9399H141.883L142.302 77.6138L138.031 85.4172H137.191L132.92 77.6138L133.339 76.9399H137.136V46.7556ZM134.128 77.858L137.611 84.221L141.094 77.858H137.611L134.128 77.858Z" fill="#B2B2B2"/>
<path d="M160.593 46.7556H161.542V76.9399H165.339L165.759 77.6138L161.487 85.4172H160.648L156.376 77.6138L156.796 76.9399H160.593V46.7556ZM157.584 77.858L161.067 84.221L164.551 77.858H161.067L157.584 77.858Z" fill="#B2B2B2"/>
<path d="M110.552 46.7556H111.502V76.9399H115.299L115.718 77.6138L111.447 85.4172H110.607L106.336 77.6138L106.755 76.9399H110.552V46.7556ZM107.544 77.858L111.027 84.221L114.51 77.858H111.027L107.544 77.858Z" fill="#B2B2B2"/>
<line x1="59.4229" y1="46.5056" x2="161.067" y2="46.5056" stroke="#B2B2B2" stroke-width="0.5"/>
<path d="M110.552 1.90735e-05H111.502V30.1843H115.299L115.718 30.8582L111.447 38.6616H110.607L106.336 30.8582L106.755 30.1843H110.552V1.90735e-05ZM107.544 31.1024L111.027 37.4654L114.51 31.1024H111.027L107.544 31.1024Z" fill="#FF0707"/>
<path d="M165.759 289.718V290.924H177.378V286.194L177.987 285.729L185.033 290.459V291.389L177.987 296.119L177.378 295.655V289.718H165.759ZM178.207 294.782L183.953 290.924L178.207 287.067V290.924L178.207 294.782Z" fill="#B2B2B2"/>
<path d="M112.116 292.655H111.027V305.523H115.299L115.718 306.197L111.447 314H110.607L106.336 306.197L106.755 305.523H112.116V292.655ZM107.544 306.441L111.027 312.804L114.51 306.441H111.027L107.544 306.441Z" fill="#B2B2B2"/>
<path d="M58.9483 292.655H57.8592V305.523H62.1309L62.5504 306.197L58.2787 314H57.4396L53.1679 306.197L53.5875 305.523H58.9483V292.655ZM54.3758 306.441L57.8592 312.804L61.3425 306.441H57.8592L54.3758 306.441Z" fill="#B2B2B2"/>
<path d="M165.284 292.655H164.195V305.523H168.467L168.886 306.197L164.615 314H163.775L159.504 306.197L159.923 305.523H165.284V292.655ZM160.712 306.441L164.195 312.804L167.678 306.441H164.195L160.712 306.441Z" fill="#B2B2B2"/>
<line x1="184.774" y1="206.071" x2="184.774" y2="292.656" stroke="#B2B2B2" stroke-width="0.5"/>
<line x1="57.8592" y1="313.186" x2="164.195" y2="313.186" stroke="#B2B2B2" stroke-width="0.5"/>
<path d="M165.759 204.865V206.071H193.016V201.341L193.624 200.876L200.671 205.606V206.536L193.624 211.266L193.016 210.801V204.865H165.759ZM193.845 209.928L199.591 206.071L193.845 202.214V206.071L193.845 209.928Z" fill="#B2B2B2"/>
<line x1="200.411" y1="143.73" x2="200.411" y2="206.071" stroke="#B2B2B2" stroke-width="0.5"/>
<path d="M165.759 85.3784V86.5845H213.345V81.854L213.953 81.3894L221 86.1198V87.0491L213.953 91.7795L213.345 91.3149V85.3784H165.759ZM214.174 90.4419L219.92 86.5845L214.174 82.727V86.5845L214.174 90.4419Z" fill="#B2B2B2"/>
<path d="M165.759 142.524V143.73H213.345V139L213.953 138.535L221 143.266V144.195L213.953 148.925L213.345 148.461V142.524H165.759ZM214.174 147.588L219.92 143.73L214.174 139.873V143.73L214.174 147.588Z" fill="#B2B2B2"/>
<line x1="220.74" y1="86.5845" x2="220.74" y2="143.73" stroke="#B2B2B2" stroke-width="0.5"/>
<path d="M55.2477 85.3784V86.5845H7.65609L7.65609 81.854L7.04752 81.3894L0 86.1198L0 87.0491L7.04752 91.7795L7.65609 91.3149V85.3784H55.2477ZM6.82699 90.4419L1.08033 86.5845L6.82693 82.727L6.82693 86.5845L6.82699 90.4419Z" fill="#B2B2B2"/>
<path d="M55.2477 142.524V143.73H7.65609L7.65609 139L7.04752 138.535L0 143.266L0 144.195L7.04752 148.925L7.65609 148.461V142.524H55.2477ZM6.82699 147.588L1.08033 143.73L6.82693 139.873L6.82693 143.73L6.82699 147.588Z" fill="#B2B2B2"/>
<path d="M55.2477 204.865V206.071H27.9873V201.341L27.3788 200.876L20.3312 205.606V206.536L27.3788 211.266L27.9873 210.801V204.865H55.2477ZM27.1582 209.928L21.4116 206.071L27.1582 202.214V206.071L27.1582 209.928Z" fill="#B2B2B2"/>
<path d="M55.2477 289.718V290.924H43.6268V286.194L43.0182 285.729L35.9707 290.459V291.389L43.0182 296.119L43.6268 295.655V289.718H55.2477ZM42.7977 294.782L37.051 290.924L42.7976 287.067V290.924L42.7977 294.782Z" fill="#B2B2B2"/>
<line y1="-0.25" x2="86.5845" y2="-0.25" transform="matrix(1.61478e-08 1 1 -1.97977e-08 36.4804 206.071)" stroke="#B2B2B2" stroke-width="0.5"/>
<line y1="-0.25" x2="62.3409" y2="-0.25" transform="matrix(2.37732e-08 1 1 -2.91466e-08 20.841 143.73)" stroke="#B2B2B2" stroke-width="0.5"/>
<line y1="-0.25" x2="57.1458" y2="-0.25" transform="matrix(2.37732e-08 1 1 -2.91466e-08 0.50975 86.5845)" stroke="#B2B2B2" stroke-width="0.5"/>
<path d="M117.932 7.35C117.932 6.20333 118.109 5.31333 118.462 4.68C118.815 4.04667 119.449 3.73 120.362 3.73C121.275 3.73 121.909 4.04667 122.262 4.68C122.615 5.31333 122.792 6.20333 122.792 7.35C122.792 8.51667 122.615 9.42 122.262 10.06C121.909 10.7 121.275 11.02 120.362 11.02C119.442 11.02 118.805 10.7 118.452 10.06C118.105 9.42 117.932 8.51667 117.932 7.35ZM122.102 7.35C122.102 6.73 122.059 6.20667 121.972 5.78C121.885 5.35333 121.715 5.01 121.462 4.75C121.209 4.49 120.842 4.36 120.362 4.36C119.882 4.36 119.515 4.49 119.262 4.75C119.009 5.01 118.839 5.35333 118.752 5.78C118.665 6.20667 118.622 6.73 118.622 7.35C118.622 7.99 118.665 8.52667 118.752 8.96C118.839 9.38667 119.009 9.73 119.262 9.99C119.515 10.25 119.882 10.38 120.362 10.38C120.842 10.38 121.209 10.25 121.462 9.99C121.715 9.73 121.885 9.38667 121.972 8.96C122.059 8.52667 122.102 7.99 122.102 7.35ZM123.794 5.73C123.794 5.37 123.871 5.05333 124.024 4.78C124.184 4.5 124.401 4.28667 124.674 4.14C124.948 3.98667 125.254 3.91 125.594 3.91C125.934 3.91 126.241 3.98667 126.514 4.14C126.788 4.28667 127.001 4.5 127.154 4.78C127.314 5.05333 127.394 5.37 127.394 5.73C127.394 6.08333 127.314 6.4 127.154 6.68C126.994 6.95333 126.778 7.16667 126.504 7.32C126.231 7.47333 125.924 7.55 125.584 7.55C125.244 7.55 124.938 7.47333 124.664 7.32C124.391 7.16667 124.178 6.95333 124.024 6.68C123.871 6.40667 123.794 6.09 123.794 5.73ZM126.804 5.73C126.804 5.30333 126.688 4.97 126.454 4.73C126.221 4.49 125.931 4.37 125.584 4.37C125.244 4.37 124.958 4.49 124.724 4.73C124.498 4.97 124.384 5.30333 124.384 5.73C124.384 6.15667 124.498 6.49 124.724 6.73C124.951 6.96333 125.238 7.08 125.584 7.08C125.924 7.08 126.211 6.96 126.444 6.72C126.684 6.48 126.804 6.15 126.804 5.73Z" fill="black"/>
</svg>
