<svg width="208" height="324" viewBox="0 0 208 324" fill="none" xmlns="http://www.w3.org/2000/svg">
<path d="M101.624 76.45C101.624 75.5573 101.819 74.76 102.209 74.058C102.599 73.3473 103.132 72.797 103.808 72.407C104.484 72.0083 105.238 71.809 106.07 71.809C107.084 71.809 107.951 72.0517 108.67 72.537C109.398 73.0137 109.927 73.6897 110.256 74.565H109.19C108.93 73.9497 108.531 73.4687 107.994 73.122C107.465 72.7753 106.824 72.602 106.07 72.602C105.403 72.602 104.8 72.758 104.263 73.07C103.734 73.382 103.318 73.8327 103.015 74.422C102.712 75.0027 102.56 75.6787 102.56 76.45C102.56 77.2213 102.712 77.8973 103.015 78.478C103.318 79.0587 103.734 79.505 104.263 79.817C104.8 80.129 105.403 80.285 106.07 80.285C106.824 80.285 107.465 80.116 107.994 79.778C108.531 79.4313 108.93 78.9547 109.19 78.348H110.256C109.927 79.2147 109.398 79.8863 108.67 80.363C107.942 80.8397 107.075 81.078 106.07 81.078C105.238 81.078 104.484 80.883 103.808 80.493C103.132 80.0943 102.599 79.544 102.209 78.842C101.819 78.14 101.624 77.3427 101.624 76.45ZM111.432 72.498V71.679H113.642V81H112.719V72.498H111.432Z" fill="black"/>
<path d="M155.624 76.45C155.624 75.5573 155.819 74.76 156.209 74.058C156.599 73.3473 157.132 72.797 157.808 72.407C158.484 72.0083 159.238 71.809 160.07 71.809C161.084 71.809 161.951 72.0517 162.67 72.537C163.398 73.0137 163.927 73.6897 164.256 74.565H163.19C162.93 73.9497 162.531 73.4687 161.994 73.122C161.465 72.7753 160.824 72.602 160.07 72.602C159.403 72.602 158.8 72.758 158.263 73.07C157.734 73.382 157.318 73.8327 157.015 74.422C156.712 75.0027 156.56 75.6787 156.56 76.45C156.56 77.2213 156.712 77.8973 157.015 78.478C157.318 79.0587 157.734 79.505 158.263 79.817C158.8 80.129 159.403 80.285 160.07 80.285C160.824 80.285 161.465 80.116 161.994 79.778C162.531 79.4313 162.93 78.9547 163.19 78.348H164.256C163.927 79.2147 163.398 79.8863 162.67 80.363C161.942 80.8397 161.075 81.078 160.07 81.078C159.238 81.078 158.484 80.883 157.808 80.493C157.132 80.0943 156.599 79.544 156.209 78.842C155.819 78.14 155.624 77.3427 155.624 76.45ZM165.692 80.285C167.287 79.089 168.518 78.0187 169.384 77.074C170.26 76.1207 170.697 75.189 170.697 74.279C170.697 73.681 170.546 73.2043 170.242 72.849C169.948 72.485 169.462 72.303 168.786 72.303C168.128 72.303 167.616 72.511 167.252 72.927C166.897 73.3343 166.698 73.8803 166.654 74.565H165.77C165.822 73.603 166.117 72.8577 166.654 72.329C167.2 71.7917 167.911 71.523 168.786 71.523C169.627 71.523 170.307 71.7613 170.827 72.238C171.347 72.706 171.607 73.3733 171.607 74.24C171.607 75.2887 171.17 76.307 170.294 77.295C169.428 78.2743 168.357 79.232 167.083 80.168H171.893V80.935H165.692V80.285Z" fill="black"/>
<path d="M104.731 238.913C105.736 238.913 106.599 239.095 107.318 239.459C108.037 239.823 108.588 240.347 108.969 241.032C109.35 241.717 109.541 242.531 109.541 243.476C109.541 244.412 109.35 245.222 108.969 245.907C108.588 246.583 108.037 247.103 107.318 247.467C106.599 247.822 105.736 248 104.731 248H102.04V238.913H104.731ZM104.731 247.246C105.996 247.246 106.958 246.917 107.617 246.258C108.284 245.591 108.618 244.663 108.618 243.476C108.618 242.28 108.284 241.348 107.617 240.681C106.958 240.005 105.996 239.667 104.731 239.667H102.95V247.246H104.731ZM110.582 239.498V238.679H112.792V248H111.869V239.498H110.582Z" fill="black"/>
<path d="M107.305 160.842H103.171L102.378 163H101.416L104.731 154.03H105.758L109.06 163H108.098L107.305 160.842ZM107.032 160.088L105.238 155.174L103.444 160.088H107.032Z" fill="black"/>
<path d="M167.291 157.307C167.802 157.402 168.236 157.662 168.591 158.087C168.946 158.512 169.124 159.006 169.124 159.569C169.124 160.028 169.007 160.444 168.773 160.817C168.548 161.181 168.214 161.471 167.772 161.688C167.33 161.896 166.801 162 166.186 162H163.04V152.913H166.095C167.014 152.913 167.711 153.125 168.188 153.55C168.673 153.975 168.916 154.525 168.916 155.201C168.916 155.764 168.764 156.224 168.461 156.579C168.158 156.926 167.768 157.168 167.291 157.307ZM163.95 156.93H166.069C166.684 156.93 167.157 156.787 167.486 156.501C167.824 156.206 167.993 155.803 167.993 155.292C167.993 154.789 167.824 154.395 167.486 154.109C167.157 153.823 166.671 153.68 166.03 153.68H163.95V156.93ZM166.121 161.233C166.78 161.233 167.291 161.077 167.655 160.765C168.028 160.453 168.214 160.024 168.214 159.478C168.214 158.932 168.019 158.499 167.629 158.178C167.248 157.849 166.732 157.684 166.082 157.684H163.95V161.233H166.121Z" fill="black"/>
<path d="M158.731 238.913C159.736 238.913 160.599 239.095 161.318 239.459C162.037 239.823 162.588 240.347 162.969 241.032C163.35 241.717 163.541 242.531 163.541 243.476C163.541 244.412 163.35 245.222 162.969 245.907C162.588 246.583 162.037 247.103 161.318 247.467C160.599 247.822 159.736 248 158.731 248H156.04V238.913H158.731ZM158.731 247.246C159.996 247.246 160.958 246.917 161.617 246.258C162.284 245.591 162.618 244.663 162.618 243.476C162.618 242.28 162.284 241.348 161.617 240.681C160.958 240.005 159.996 239.667 158.731 239.667H156.95V247.246H158.731ZM164.842 247.285C166.436 246.089 167.667 245.019 168.534 244.074C169.409 243.121 169.847 242.189 169.847 241.279C169.847 240.681 169.695 240.204 169.392 239.849C169.097 239.485 168.612 239.303 167.936 239.303C167.277 239.303 166.766 239.511 166.402 239.927C166.046 240.334 165.847 240.88 165.804 241.565H164.92C164.972 240.603 165.266 239.858 165.804 239.329C166.35 238.792 167.06 238.523 167.936 238.523C168.776 238.523 169.457 238.761 169.977 239.238C170.497 239.706 170.757 240.373 170.757 241.24C170.757 242.289 170.319 243.307 169.444 244.295C168.577 245.274 167.507 246.232 166.233 247.168H171.043V247.935H164.842V247.285Z" fill="black"/>
<path d="M187.669 110.078V111.289H199.29V106.539L199.898 106.072L206.946 110.822V111.755L199.898 116.505L199.29 116.039V110.078H187.669ZM200.119 115.162L205.866 111.289L200.119 107.415V111.289L200.119 115.162Z" fill="#B2B2B2"/>
<path d="M187.669 212.673V213.884H199.29V209.134L199.898 208.667L206.946 213.417V214.35L199.898 219.101L199.29 218.634V212.673H187.669ZM200.119 217.757L205.866 213.884L200.119 210.01V213.884L200.119 217.757Z" fill="#B2B2B2"/>
<path d="M187.669 160.506V161.717H199.29V156.967L199.898 156.5L206.946 161.25V162.183L199.898 166.934L199.29 166.467V160.506H187.669ZM200.119 165.59L205.866 161.717L200.119 157.843V161.717L200.119 165.59Z" fill="#B2B2B2"/>
<path d="M187.669 263.1V264.311H199.29V259.561L199.899 259.095L206.946 263.845V264.778L199.899 269.528L199.29 269.061V263.1H187.669ZM200.119 268.185L205.866 264.311L200.119 260.438V264.311L200.119 268.185Z" fill="#B2B2B2"/>
<path d="M187.669 57.9111V59.1222H199.29V54.3721L199.898 53.9055L206.946 58.6556V59.5888L199.898 64.3389L199.29 63.8723V57.9111H187.669ZM200.119 62.9957L205.866 59.1222L200.119 55.2487V59.1222L200.119 62.9957Z" fill="#B2B2B2"/>
<line x1="207.75" y1="264.311" x2="207.75" y2="59.1222" stroke="#B2B2B2" stroke-width="0.5"/>
<path d="M43.7895 59.6499V60.861H71.0493V56.1109L71.6579 55.6443L78.7052 60.3944V61.3275L71.6579 66.0776L71.0493 65.6111V59.6499H43.7895ZM71.8784 64.7344L77.6249 60.861L71.8784 56.9875V60.861L71.8784 64.7344Z" fill="#B2B2B2"/>
<path d="M43.7895 261.361V262.572H71.0493V257.822L71.6579 257.355L78.7052 262.105V263.038L71.6579 267.789L71.0493 267.322V261.361H43.7895ZM71.8784 266.445L77.6249 262.572L71.8784 258.698V262.572L71.8784 266.445Z" fill="#B2B2B2"/>
<path d="M43.7895 217.889V219.1H71.0493V214.35L71.6579 213.884L78.7052 218.634V219.567L71.6579 224.317L71.0493 223.85V217.889H43.7895ZM71.8784 222.974L77.6249 219.1L71.8784 215.227V219.1L71.8784 222.974Z" fill="#B2B2B2"/>
<path d="M43.7895 160.506V161.717H71.0493V156.967L71.6579 156.5L78.7052 161.25V162.183L71.6579 166.934L71.0493 166.467V160.506H43.7895ZM71.8784 165.59L77.6249 161.717L71.8784 157.843V161.717L71.8784 165.59Z" fill="#B2B2B2"/>
<path d="M43.7895 111.816V113.027H71.0493V108.277L71.6579 107.811L78.7052 112.561V113.494L71.6579 118.244L71.0493 117.778V111.816H43.7895ZM71.8784 116.901L77.6249 113.027L71.8784 109.154V113.027L71.8784 116.901Z" fill="#B2B2B2"/>
<line x1="44.0395" y1="60.8611" x2="44.0395" y2="262.572" stroke="#B2B2B2" stroke-width="0.5"/>
<path d="M186.58 57.95H187.669V27.6402H183.397L182.977 26.9636L187.25 19.1277H188.089L192.361 26.9636L191.941 27.6402H186.58V57.95ZM191.153 26.7184L187.669 20.3289L184.185 26.7183H187.669L191.153 26.7184Z" fill="#B2B2B2"/>
<line x1="134.496" y1="18.8777" x2="187.669" y2="18.8777" stroke="#B2B2B2" stroke-width="0.5"/>
<path d="M81.7979 61.4278H82.8872V8.51253L78.615 8.51253L78.1954 7.83587L82.4675 0L83.3068 0L87.5789 7.83587L87.1593 8.51253H81.7979V61.4278ZM86.3709 7.59068L82.8872 1.20118L79.4035 7.59061H82.8872L86.3709 7.59068Z" fill="#B2B2B2"/>
<path d="M133.407 61.4278H134.496V8.51253L130.224 8.51253L129.804 7.83587L134.077 0L134.916 0L139.188 7.83587L138.768 8.51253H133.407V61.4278ZM137.98 7.59068L134.496 1.20118L131.012 7.59061H134.496L137.98 7.59068Z" fill="#B2B2B2"/>
<line x1="82.8872" y1="0.316406" x2="134.496" y2="0.316408" stroke="#B2B2B2" stroke-width="0.5"/>
<path d="M186.58 266.05H187.669V296.36H183.397L182.977 297.036L187.25 304.872H188.089L192.361 297.036L191.941 296.36H186.58V266.05ZM191.153 297.281L187.669 303.671L184.185 297.281H187.669L191.153 297.281Z" fill="#B2B2B2"/>
<line y1="-0.25" x2="53.1729" y2="-0.25" transform="matrix(1 0 0 -1 134.496 304.872)" stroke="#B2B2B2" stroke-width="0.5"/>
<path d="M81.798 262.572H82.8872V315.487H78.6151L78.1955 316.164L82.4676 324H83.3068L87.5789 316.164L87.1593 315.487H81.798V262.572ZM86.3709 316.409L82.8872 322.799L79.4035 316.409H82.8872L86.3709 316.409Z" fill="#B2B2B2"/>
<path d="M133.407 262.572H134.496V315.487H130.224L129.804 316.164L134.077 324H134.916L139.188 316.164L138.768 315.487H133.407V262.572ZM137.98 316.409L134.496 322.799L131.013 316.409H134.496L137.98 316.409Z" fill="#B2B2B2"/>
<line y1="-0.25" x2="51.609" y2="-0.25" transform="matrix(1 -2.92683e-08 -2.36743e-08 -1 82.8872 323.434)" stroke="#B2B2B2" stroke-width="0.5"/>
<rect x="78.6955" y="57.8831" width="5.25564" height="207.667" fill="#C4C4C4" stroke="black"/>
<rect x="181.914" y="57.8831" width="5.25564" height="207.667" fill="#C4C4C4" stroke="black"/>
<rect x="78.6955" y="259.594" width="56.8647" height="5.95555" fill="#C4C4C4" stroke="black"/>
<rect x="133.432" y="259.594" width="53.7368" height="5.95555" fill="#C4C4C4" stroke="black"/>
<rect x="78.6955" y="57.8831" width="56.8647" height="5.95555" fill="#C4C4C4" stroke="black"/>
<rect x="133.432" y="57.8831" width="53.7368" height="5.95555" fill="#C4C4C4" stroke="black"/>
<path d="M7.62939e-06 160.505V159.45H27.2598V155.228L27.8684 154.761L34.9157 159.511V160.444L27.8684 165.194L27.2598 164.728V160.505H7.62939e-06ZM28.0889 163.851L33.8354 159.978L28.089 156.104V159.978L28.0889 163.851Z" fill="#FF0707"/>
<path d="M4.70781 137.768C4.78114 138.202 4.94781 138.535 5.20781 138.768C5.46781 139.002 5.82447 139.118 6.27781 139.118C6.90447 139.118 7.36781 138.875 7.66781 138.388C7.97447 137.895 8.11447 137.082 8.08781 135.948C7.96114 136.315 7.71781 136.605 7.35781 136.818C7.00447 137.025 6.59781 137.128 6.13781 137.128C5.43781 137.128 4.87447 136.918 4.44781 136.498C4.02781 136.078 3.81781 135.495 3.81781 134.748C3.81781 134.302 3.90447 133.898 4.07781 133.538C4.25114 133.178 4.51447 132.895 4.86781 132.688C5.22114 132.482 5.65447 132.378 6.16781 132.378C7.11447 132.378 7.77447 132.688 8.14781 133.308C8.52114 133.922 8.70781 134.805 8.70781 135.958C8.70781 137.205 8.52114 138.142 8.14781 138.768C7.78114 139.395 7.14781 139.708 6.24781 139.708C5.58781 139.708 5.07447 139.532 4.70781 139.178C4.34114 138.818 4.12447 138.348 4.05781 137.768H4.70781ZM6.24781 136.528C6.56114 136.528 6.84781 136.465 7.10781 136.338C7.37447 136.205 7.58781 136.012 7.74781 135.758C7.90781 135.505 7.98781 135.202 7.98781 134.848C7.98781 134.302 7.83114 133.852 7.51781 133.498C7.21114 133.145 6.76781 132.968 6.18781 132.968C5.67447 132.968 5.26114 133.128 4.94781 133.448C4.64114 133.768 4.48781 134.195 4.48781 134.728C4.48781 135.288 4.64114 135.728 4.94781 136.048C5.25447 136.368 5.68781 136.528 6.24781 136.528ZM10.0278 136.028C10.0278 134.882 10.2045 133.992 10.5578 133.358C10.9111 132.725 11.5445 132.408 12.4578 132.408C13.3711 132.408 14.0045 132.725 14.3578 133.358C14.7111 133.992 14.8878 134.882 14.8878 136.028C14.8878 137.195 14.7111 138.098 14.3578 138.738C14.0045 139.378 13.3711 139.698 12.4578 139.698C11.5378 139.698 10.9011 139.378 10.5478 138.738C10.2011 138.098 10.0278 137.195 10.0278 136.028ZM14.1978 136.028C14.1978 135.408 14.1545 134.885 14.0678 134.458C13.9811 134.032 13.8111 133.688 13.5578 133.428C13.3045 133.168 12.9378 133.038 12.4578 133.038C11.9778 133.038 11.6111 133.168 11.3578 133.428C11.1045 133.688 10.9345 134.032 10.8478 134.458C10.7611 134.885 10.7178 135.408 10.7178 136.028C10.7178 136.668 10.7611 137.205 10.8478 137.638C10.9345 138.065 11.1045 138.408 11.3578 138.668C11.6111 138.928 11.9778 139.058 12.4578 139.058C12.9378 139.058 13.3045 138.928 13.5578 138.668C13.8111 138.408 13.9811 138.065 14.0678 137.638C14.1545 137.205 14.1978 136.668 14.1978 136.028ZM15.8899 134.408C15.8899 134.048 15.9666 133.732 16.1199 133.458C16.2799 133.178 16.4966 132.965 16.7699 132.818C17.0433 132.665 17.3499 132.588 17.6899 132.588C18.0299 132.588 18.3366 132.665 18.6099 132.818C18.8833 132.965 19.0966 133.178 19.2499 133.458C19.4099 133.732 19.4899 134.048 19.4899 134.408C19.4899 134.762 19.4099 135.078 19.2499 135.358C19.0899 135.632 18.8733 135.845 18.5999 135.998C18.3266 136.152 18.0199 136.228 17.6799 136.228C17.3399 136.228 17.0333 136.152 16.7599 135.998C16.4866 135.845 16.2733 135.632 16.1199 135.358C15.9666 135.085 15.8899 134.768 15.8899 134.408ZM18.8999 134.408C18.8999 133.982 18.7833 133.648 18.5499 133.408C18.3166 133.168 18.0266 133.048 17.6799 133.048C17.3399 133.048 17.0533 133.168 16.8199 133.408C16.5933 133.648 16.4799 133.982 16.4799 134.408C16.4799 134.835 16.5933 135.168 16.8199 135.408C17.0466 135.642 17.3333 135.758 17.6799 135.758C18.0199 135.758 18.3066 135.638 18.5399 135.398C18.7799 135.158 18.8999 134.828 18.8999 134.408Z" fill="black"/>
</svg>
