<svg xmlns="http://www.w3.org/2000/svg" height="598pt" version="1.1" viewBox="-35 1 598 598.51324" width="598pt">
<g id="surface1">
<path d="M 501.351562 314.558594 L 501.351562 267.492188 C 501.027344 162.335938 431.640625 69.890625 330.757812 40.214844 C 319.175781 15.703125 294.511719 0.0507812 267.402344 0 L 262.414062 0 C 235.105469 -0.160156 210.183594 15.527344 198.515625 40.214844 C 97.632812 69.890625 28.246094 162.335938 27.921875 267.492188 L 27.921875 314.558594 C 8.554688 319.214844 -3.363281 338.691406 1.292969 358.058594 C 4.984375 373.386719 18.203125 384.550781 33.933594 385.609375 L 105.34375 385.609375 C 105.542969 392.308594 106.167969 399 107.207031 405.625 L 77.695312 422.636719 C 60.351562 432.710938 54.417969 454.902344 64.410156 472.285156 L 84.304688 506.609375 C 94.378906 523.953125 116.574219 529.882812 133.957031 519.894531 L 163.472656 502.882812 C 176.941406 513.980469 192.15625 522.773438 208.492188 528.910156 L 208.492188 562.933594 C 208.65625 582.78125 224.710938 598.839844 244.558594 599 L 284.230469 599 C 304.082031 598.839844 320.136719 582.78125 320.296875 562.933594 L 320.296875 528.910156 C 336.636719 522.773438 351.851562 513.980469 365.320312 502.882812 L 394.835938 519.894531 C 412.117188 530.128906 434.421875 524.421875 444.660156 507.136719 C 444.761719 506.964844 444.863281 506.785156 444.964844 506.609375 L 464.804688 472.285156 C 474.792969 454.902344 468.859375 432.710938 451.519531 422.636719 L 422.003906 405.625 C 423.042969 399 423.664062 392.308594 423.867188 385.609375 L 495.277344 385.609375 C 515.152344 384.269531 530.179688 367.070312 528.839844 347.199219 C 527.78125 331.464844 516.617188 318.242188 501.289062 314.558594 Z M 262.113281 12.023438 L 267.101562 12.023438 C 299.222656 12.058594 325.25 38.089844 325.289062 70.210938 L 325.289062 198.785156 C 325.289062 215.382812 311.828125 228.839844 295.230469 228.839844 L 233.859375 228.839844 C 217.261719 228.839844 203.804688 215.382812 203.804688 198.785156 L 203.804688 70.210938 C 203.835938 38.046875 229.941406 11.992188 262.113281 12.023438 Z M 193.765625 54.101562 C 192.539062 59.300781 191.914062 64.625 191.902344 69.96875 L 191.902344 198.785156 C 191.902344 222.023438 210.742188 240.863281 233.980469 240.863281 L 295.414062 240.863281 C 318.652344 240.863281 337.492188 222.023438 337.492188 198.785156 L 337.492188 70.210938 C 337.476562 64.867188 336.851562 59.539062 335.625 54.339844 C 427.265625 85.113281 489.117188 170.828125 489.449219 267.492188 L 489.449219 314.015625 L 39.945312 314.015625 L 39.945312 267.492188 C 40.28125 170.8125 102.164062 85.089844 193.828125 54.339844 Z M 412.386719 413.859375 L 445.507812 432.976562 C 457.109375 439.726562 461.082031 454.574219 454.40625 466.21875 L 434.566406 500.539062 C 427.84375 512.171875 412.964844 516.152344 401.328125 509.4375 L 368.144531 490.261719 C 365.921875 488.960938 363.113281 489.234375 361.171875 490.921875 C 346.976562 503.304688 330.53125 512.832031 312.726562 518.996094 C 310.304688 519.84375 308.679688 522.136719 308.699219 524.703125 L 308.699219 562.933594 C 308.535156 576.148438 297.867188 586.816406 284.652344 586.980469 L 244.800781 586.980469 C 231.589844 586.816406 220.917969 576.148438 220.753906 562.933594 L 220.753906 524.703125 C 220.773438 522.136719 219.148438 519.84375 216.726562 518.996094 C 198.953125 512.84375 182.523438 503.335938 168.339844 490.984375 C 166.398438 489.292969 163.589844 489.023438 161.367188 490.320312 L 128.1875 509.496094 C 116.769531 516.277344 102.015625 512.519531 95.234375 501.097656 C 95.136719 500.929688 95.042969 500.769531 94.945312 500.597656 L 75.109375 466.277344 C 68.429688 454.632812 72.402344 439.785156 84.003906 433.035156 L 116.886719 413.859375 C 119.109375 412.574219 120.269531 410.011719 119.769531 407.488281 C 118.441406 400.246094 117.660156 392.910156 117.425781 385.546875 L 191.722656 385.546875 C 194.785156 425.835938 229.925781 456.011719 270.210938 452.949219 C 306.238281 450.210938 334.871094 421.578125 337.613281 385.546875 L 411.847656 385.546875 C 411.613281 392.914062 410.824219 400.246094 409.503906 407.488281 C 408.996094 410.011719 410.15625 412.574219 412.386719 413.859375 Z M 203.746094 385.546875 L 325.527344 385.546875 C 322.355469 419.191406 292.503906 443.898438 258.859375 440.722656 C 229.605469 437.964844 206.441406 414.804688 203.683594 385.546875 Z M 495.339844 373.527344 L 33.933594 373.527344 C 20.804688 371.542969 11.769531 359.285156 13.753906 346.160156 C 15.328125 335.734375 23.511719 327.5625 33.933594 325.980469 L 495.28125 325.980469 C 508.40625 327.960938 517.441406 340.21875 515.460938 353.347656 C 513.882812 363.769531 505.703125 371.945312 495.28125 373.527344 Z M 495.339844 373.527344 " style=" stroke:none;fill-rule:nonzero;fill:rgb(0%,0%,0%);fill-opacity:1;" />
</g>
</svg>