<svg width="24" height="26" viewBox="0 0 24 26" fill="none" xmlns="http://www.w3.org/2000/svg">
<g clip-path="url(#clip0)">
<path d="M9 10.8333C11.7614 10.8333 14 8.40821 14 5.41667C14 2.42512 11.7614 0 9 0C6.23858 0 4 2.42512 4 5.41667C4 8.40821 6.23858 10.8333 9 10.8333Z" fill="white"/>
<path d="M11.534 22.5333C11.013 21.5562 11.117 20.3526 11.737 19.5C11.117 18.6474 11.013 17.4449 11.534 16.4667L12.343 14.95C12.788 14.1148 13.618 13.5958 14.509 13.5958C14.631 13.5958 14.751 13.6056 14.87 13.624C14.903 13.5352 14.945 13.4517 14.986 13.3672C14.446 13.1365 13.863 13 13.25 13H4.75C2.131 13 0 15.3086 0 18.1458V21.9375C0 22.386 0.336 22.75 0.75 22.75H11.649L11.534 22.5333Z" fill="white"/>
<path d="M21.703 20.0081C21.723 19.8402 21.75 19.6734 21.75 19.5C21.75 19.3256 21.722 19.1599 21.703 18.992L22.604 18.2531C22.805 18.0885 22.861 17.7873 22.735 17.55L21.926 16.0334C21.8 15.7972 21.531 15.6986 21.299 15.8048L20.262 16.2782C20.009 16.0691 19.74 15.885 19.443 15.7506L19.305 14.5579C19.273 14.287 19.061 14.0834 18.809 14.0834H17.192C16.94 14.0834 16.727 14.287 16.696 14.5579L16.558 15.7506C16.261 15.885 15.991 16.0702 15.739 16.2782L14.702 15.8048C14.47 15.6986 14.201 15.7961 14.075 16.0334L13.266 17.55C13.14 17.7862 13.196 18.0874 13.397 18.2531L14.298 18.992C14.278 19.1599 14.251 19.3267 14.251 19.5C14.251 19.6745 14.279 19.8402 14.298 20.0081L13.397 20.747C13.196 20.9116 13.14 21.2128 13.266 21.45L14.075 22.9678C14.201 23.204 14.47 23.3025 14.702 23.1964L15.739 22.7219C15.992 22.931 16.261 23.1151 16.558 23.2495L16.696 24.4422C16.727 24.713 16.939 24.9167 17.191 24.9167H18.808C19.06 24.9167 19.273 24.713 19.304 24.4422L19.442 23.2495C19.739 23.1151 20.009 22.9299 20.261 22.7219L21.298 23.1953C21.53 23.3015 21.799 23.204 21.925 22.9667L22.734 21.449C22.86 21.2128 22.804 20.9116 22.603 20.7459L21.703 20.0081ZM18 21.6667C16.895 21.6667 16 20.6971 16 19.5C16 18.303 16.895 17.3334 18 17.3334C19.105 17.3334 20 18.303 20 19.5C20 20.6971 19.105 21.6667 18 21.6667Z" fill="white"/>
</g>
<defs>
<clipPath id="clip0">
<rect width="24" height="26" fill="white"/>
</clipPath>
</defs>
</svg>
